<svg xmlns="http://www.w3.org/2000/svg" width="30" height="26" viewBox="0 0 30 26">
  <g id="Group_153243" data-name="Group 153243" transform="translate(-1 -3)">
    <path id="Path_1204" data-name="Path 1204" d="M27.348,7H23.054l-.5-1.5A3.645,3.645,0,0,0,19.089,3H12.911A3.646,3.646,0,0,0,9.447,5.5L8.946,7H4.652A3.656,3.656,0,0,0,1,10.652v14.7A3.656,3.656,0,0,0,4.652,29h22.7A3.656,3.656,0,0,0,31,25.348v-14.7A3.656,3.656,0,0,0,27.348,7ZM29,25.348A1.654,1.654,0,0,1,27.348,27H4.652A1.654,1.654,0,0,1,3,25.348v-14.7A1.654,1.654,0,0,1,4.652,9H9.667a1,1,0,0,0,.948-.684l.729-2.187A1.65,1.65,0,0,1,12.911,5h6.178a1.649,1.649,0,0,1,1.567,1.13l.729,2.186A1,1,0,0,0,22.333,9h5.015A1.654,1.654,0,0,1,29,10.652Z" transform="translate(0 0)" fill="#fff"/>
    <path id="Path_1205" data-name="Path 1205" d="M14.5,10a6,6,0,1,0,6,6,6,6,0,0,0-6-6Zm0,10.394a4.4,4.4,0,1,1,4.4-4.4,4.4,4.4,0,0,1-4.4,4.4Z" transform="translate(1.504 1.914)" fill="#fff"/>
    <circle id="Ellipse_46" data-name="Ellipse 46" cx="1" cy="1" r="1" transform="translate(26.007 11.168)" fill="#fff"/>
  </g>
</svg>
