<svg xmlns="http://www.w3.org/2000/svg" width="24" height="23.609" viewBox="0 0 24 23.609">
  <path id="Edit" d="M5.168,20.811h.123l3.271-.3a1.972,1.972,0,0,0,1.206-.569L22.113,7.594a3.045,3.045,0,0,0,0-4.331l-.793-.793a3.142,3.142,0,0,0-4.342,0L15.4,4.045h0L4.643,14.806a1.9,1.9,0,0,0-.558,1.206l-.3,3.271a1.435,1.435,0,0,0,.4,1.116,1.377,1.377,0,0,0,.982.413ZM19.155,3.241a1.351,1.351,0,0,1,.982.413l.793.793a1.377,1.377,0,0,1,.413.982,1.359,1.359,0,0,1-.413.982l-.982.982L17.19,4.636l.982-.982a1.4,1.4,0,0,1,.982-.413ZM5.749,16.167A.237.237,0,0,1,5.827,16L16,5.82l2.757,2.757L8.584,18.746a.467.467,0,0,1-.167.078l-2.936.268.268-2.936Zm19.5,8.2a.843.843,0,0,1-.837.837H2.087a.837.837,0,1,1,0-1.674H24.413A.843.843,0,0,1,25.25,24.372Z" transform="translate(-1.25 -1.6)" fill="#fff"/>
</svg>
