<svg xmlns="http://www.w3.org/2000/svg" width="21.551" height="24" viewBox="0 0 21.551 24">
  <path id="Path_1279" data-name="Path 1279" d="M19.168,18.24a.842.842,0,0,1,0,1.183.835.835,0,0,1-1.183,0l-1.116-1.116a.836.836,0,0,1-.246-.592V15.483a.837.837,0,1,1,1.674,0v1.887Zm5.827-.525A7.546,7.546,0,0,1,17.46,25.25H7.626A4.183,4.183,0,0,1,3.451,20.8L4.21,8.6a3.085,3.085,0,0,1,3.07-2.88h.413V4.32a3.068,3.068,0,0,1,3.07-3.07h4.465A3.068,3.068,0,0,1,18.3,4.32v1.4h.413A3.085,3.085,0,0,1,21.78,8.6l.19,3.092a7.526,7.526,0,0,1,3.025,6.028Zm-15.628-12h7.256V4.32a1.4,1.4,0,0,0-1.4-1.4H10.762a1.4,1.4,0,0,0-1.4,1.4Zm3.371,17.86a7.527,7.527,0,0,1,4.722-13.4,7.366,7.366,0,0,1,2.768.536l-.123-2.009a1.388,1.388,0,0,0-1.4-1.317H7.28a1.388,1.388,0,0,0-1.4,1.317l-.759,12.2a2.5,2.5,0,0,0,2.5,2.668Zm10.582-5.86a5.86,5.86,0,1,0-5.86,5.86A5.867,5.867,0,0,0,23.321,17.715Z" transform="translate(-3.444 -1.25)" fill="#6b6b6b"/>
</svg>
