<svg xmlns="http://www.w3.org/2000/svg" width="24" height="22.894" viewBox="0 0 24 22.894">
  <g id="Layer_2" data-name="Layer 2" transform="translate(-1.425 -1.575)">
    <path id="Path_1191" data-name="Path 1191" d="M20.234,24.469H17.4a1.988,1.988,0,0,1-1.986-1.986V18.511a1.986,1.986,0,1,0-3.972,0v3.972a1.988,1.988,0,0,1-1.986,1.986H6.617a1.988,1.988,0,0,1-1.986-1.986V14.256H3.405a1.982,1.982,0,0,1-1.292-3.483l10-8.711a2,2,0,0,1,2.615,0l10.009,8.715a1.982,1.982,0,0,1-1.3,3.479H22.219v8.227A1.988,1.988,0,0,1,20.234,24.469Z" transform="translate(0 0)" fill="#0560fd"/>
  </g>
</svg>
