<svg xmlns="http://www.w3.org/2000/svg" width="18" height="15.429" viewBox="0 0 18 15.429">
  <path id="Path_984" data-name="Path 984" d="M13.286,18.143A1.286,1.286,0,0,0,12,16.857H4.286a1.286,1.286,0,1,0,0,2.571H12A1.286,1.286,0,0,0,13.286,18.143ZM21,5.286A1.286,1.286,0,0,0,19.714,4H4.286a1.286,1.286,0,0,0,0,2.571H19.714A1.286,1.286,0,0,0,21,5.286Zm0,6.429a1.286,1.286,0,0,0-1.286-1.286H4.286a1.286,1.286,0,1,0,0,2.571H19.714A1.286,1.286,0,0,0,21,11.714Z" transform="translate(-3 -4)" fill="#1a1a1a" fill-rule="evenodd"/>
</svg>
