<svg xmlns="http://www.w3.org/2000/svg" xmlns:xlink="http://www.w3.org/1999/xlink" width="24" height="24" viewBox="0 0 24 24">
  <defs>
    <clipPath id="clip-path">
      <path id="Path_1278" data-name="Path 1278" d="M0,0H24V24H0Z" fill="none"/>
    </clipPath>
  </defs>
  <g id="Group_152603" data-name="Group 152603" clip-path="url(#clip-path)">
    <path id="Path_1276" data-name="Path 1276" d="M7.308,15.916a.75.75,0,1,0-.615,1.368l2,.9a.75.75,0,1,0,.615-1.368Z" fill="currentColor"/>
    <path id="Path_1277" data-name="Path 1277" d="M13.792,1.656a4.25,4.25,0,0,0-3.584,0l-6.5,3.022A4.25,4.25,0,0,0,1.25,8.532v7.015a4.25,4.25,0,0,0,2.49,3.868l6.5,2.958a4.25,4.25,0,0,0,3.52,0l6.5-2.958a4.25,4.25,0,0,0,2.49-3.868V8.532a4.25,4.25,0,0,0-2.458-3.854ZM10.84,3.016a2.75,2.75,0,0,1,2.319,0l6.5,3.022a2.747,2.747,0,0,1,1.129.968L17.809,8.419,8.742,3.992Zm-3.85,1.79L4.341,6.039a2.747,2.747,0,0,0-1.129.968L12,11.17l4.074-1.93ZM2.751,8.449l8.5,4.026v8.676a2.765,2.765,0,0,1-.39-.143l-6.5-2.958a2.75,2.75,0,0,1-1.611-2.5V8.532q0-.042,0-.083Zm10,12.7a2.749,2.749,0,0,0,.388-.142l6.5-2.958a2.75,2.75,0,0,0,1.611-2.5V8.532q0-.042,0-.083l-8.5,4.025Z" fill="currentColor" fill-rule="evenodd"/>
  </g>
</svg>
