<svg xmlns="http://www.w3.org/2000/svg" width="23.262" height="24" viewBox="0 0 23.262 24">
  <path id="Path_1197" data-name="Path 1197" d="M30.45,13.908l-1-.822a1.406,1.406,0,0,1,0-2.171l1-.822a1.869,1.869,0,0,0,.432-2.385L28.911,4.293a1.869,1.869,0,0,0-2.282-.818l-1.211.454a1.406,1.406,0,0,1-1.88-1.086l-.213-1.276A1.869,1.869,0,0,0,21.475,0H17.533a1.869,1.869,0,0,0-1.849,1.567L15.47,2.842a1.406,1.406,0,0,1-1.88,1.086l-1.211-.454a1.869,1.869,0,0,0-2.282.818L8.126,7.707a1.869,1.869,0,0,0,.432,2.385l1,.822a1.406,1.406,0,0,1,0,2.171l-1,.822a1.869,1.869,0,0,0-.432,2.385L10.1,19.707a1.869,1.869,0,0,0,2.282.818l1.211-.454a1.406,1.406,0,0,1,1.88,1.086l.213,1.276A1.869,1.869,0,0,0,17.533,24h3.943a1.869,1.869,0,0,0,1.849-1.567l.213-1.276a1.406,1.406,0,0,1,1.88-1.086l1.211.454a1.869,1.869,0,0,0,2.282-.818l1.972-3.415a1.869,1.869,0,0,0-.432-2.385ZM27.287,18.77l-1.211-.454a3.281,3.281,0,0,0-4.388,2.533l-.213,1.276H17.533l-.213-1.276a3.281,3.281,0,0,0-4.388-2.533l-1.211.454L9.75,15.355l1-.822a3.281,3.281,0,0,0,0-5.067l-1-.822L11.721,5.23l1.211.454A3.281,3.281,0,0,0,17.32,3.151l.213-1.276h3.943l.213,1.276a3.281,3.281,0,0,0,4.388,2.533l1.211-.454,1.972,3.414h0l-1,.822a3.281,3.281,0,0,0,0,5.067l1,.822ZM19.5,7.375A4.625,4.625,0,1,0,24.129,12,4.63,4.63,0,0,0,19.5,7.375Zm0,7.375A2.75,2.75,0,1,1,22.254,12,2.753,2.753,0,0,1,19.5,14.75Z" transform="translate(-7.873)" fill="currentColor"/>
</svg>
