<svg xmlns="http://www.w3.org/2000/svg" width="22" height="13.75" viewBox="0 0 22 13.75">
  <path id="Show" d="M11,37.75C3.8,37.75.235,31.476.087,31.209a.687.687,0,0,1,0-.668C.235,30.274,3.8,24,11,24s10.765,6.274,10.913,6.541a.687.687,0,0,1,0,.668C21.765,31.476,18.2,37.75,11,37.75ZM1.5,30.874c.818,1.239,4.029,5.5,9.5,5.5,5.492,0,8.689-4.258,9.5-5.5-.818-1.239-4.029-5.5-9.5-5.5C5.508,25.375,2.311,29.633,1.5,30.874ZM11,35a4.125,4.125,0,1,1,4.125-4.125A4.13,4.13,0,0,1,11,35Zm0-6.875a2.75,2.75,0,1,0,2.75,2.75A2.753,2.753,0,0,0,11,28.125Z" transform="translate(0 -24)" fill="#1a1a1a"/>
</svg>
