<svg xmlns="http://www.w3.org/2000/svg" width="18" height="17.977" viewBox="0 0 18 17.977">
  <g id="Icon" transform="translate(-1.994 -2.033)">
    <path id="Path_1335" data-name="Path 1335" d="M15.213,20.01a3.317,3.317,0,0,1-1.286-.264A22.2,22.2,0,0,1,2.255,8.067a3.214,3.214,0,0,1,.681-3.542L4.865,2.6a1.928,1.928,0,0,1,2.725,0L9.859,4.866a1.928,1.928,0,0,1,0,2.725L8.811,8.652A8.06,8.06,0,0,0,13.356,13.2l1.08-1.073a1.928,1.928,0,0,1,2.725,0l2.269,2.269a1.928,1.928,0,0,1,0,2.725L17.5,19.045a3.214,3.214,0,0,1-2.288.964ZM6.253,3.3a.643.643,0,0,0-.456.186L3.868,5.412A1.928,1.928,0,0,0,3.457,7.54,20.871,20.871,0,0,0,14.449,18.57a1.928,1.928,0,0,0,2.128-.411L18.5,16.23a.643.643,0,0,0,0-.913l-2.275-2.269a.643.643,0,0,0-.906,0L13.96,14.411a.643.643,0,0,1-.643.154A9.269,9.269,0,0,1,7.455,8.7a.643.643,0,0,1,.154-.643L8.972,6.7a.644.644,0,0,0,0-.906L6.709,3.484A.643.643,0,0,0,6.253,3.3Z" fill="#6b6b6b"/>
  </g>
</svg>
