<svg id="Group_153162" data-name="Group 153162" xmlns="http://www.w3.org/2000/svg" width="24" height="20.8" viewBox="0 0 24 20.8">
  <path id="Path_1204" data-name="Path 1204" d="M22.078,6.2H18.643l-.4-1.2a2.916,2.916,0,0,0-2.772-2H10.529A2.917,2.917,0,0,0,7.758,5l-.4,1.2H3.922A2.925,2.925,0,0,0,1,9.122v11.76A2.925,2.925,0,0,0,3.922,23.8h18.16A2.925,2.925,0,0,0,25,20.878V9.118A2.925,2.925,0,0,0,22.078,6.2ZM23.4,20.878A1.323,1.323,0,0,1,22.078,22.2H3.922A1.323,1.323,0,0,1,2.6,20.878V9.118A1.323,1.323,0,0,1,3.922,7.8H7.934a.8.8,0,0,0,.758-.547L9.275,5.5a1.32,1.32,0,0,1,1.254-.9h4.942a1.319,1.319,0,0,1,1.254.9l.583,1.749a.8.8,0,0,0,.758.547h4.012A1.323,1.323,0,0,1,23.4,9.122Z" transform="translate(-1 -3)" fill="#0560fd"/>
  <path id="Path_1205" data-name="Path 1205" d="M14.5,10a6,6,0,1,0,6,6,6,6,0,0,0-6-6Zm0,10.394a4.4,4.4,0,1,1,4.4-4.4,4.4,4.4,0,0,1-4.4,4.4Z" transform="translate(-2.496 -4.395)" fill="#0560fd"/>
  <circle id="Ellipse_46" data-name="Ellipse 46" cx="1" cy="1" r="1" transform="translate(19.007 6.398)" fill="#0560fd"/>
</svg>
