<svg id="Group_221" data-name="Group 221" xmlns="http://www.w3.org/2000/svg" width="55.813" height="36.742" viewBox="0 0 55.813 36.742">
  <g id="Group_195" data-name="Group 195">
    <path id="Path_1129" data-name="Path 1129" d="M60.116,335.224H8.691a1.212,1.212,0,0,1-1.212-1.212v-4.054H61.661v3.722A1.544,1.544,0,0,1,60.116,335.224Z" transform="translate(-6.664 -303.525)" fill="#399aea"/>
    <path id="Path_1130" data-name="Path 1130" d="M374.426,203.669H360.243V182.308h8.988a1.751,1.751,0,0,1,1.246.521l4.988,5.05a1.752,1.752,0,0,1,.505,1.231v13.016A1.544,1.544,0,0,1,374.426,203.669Z" transform="translate(-320.973 -171.97)" fill="#61aff6"/>
    <path id="Path_1131" data-name="Path 1131" d="M399.537,187.878l-4.988-5.05a1.751,1.751,0,0,0-1.246-.521H387.26a1.751,1.751,0,0,1,1.246.521l4.988,5.05a1.752,1.752,0,0,1,.505,1.231v14.56h4.5a1.544,1.544,0,0,0,1.544-1.544V189.109A1.751,1.751,0,0,0,399.537,187.878Z" transform="translate(-345.045 -171.97)" fill="#399aea"/>
    <path id="Path_1132" data-name="Path 1132" d="M387.8,219.283v-6.637a.723.723,0,0,1,.723-.723h4.435a.723.723,0,0,1,.515.215l3.838,3.885a.723.723,0,0,1,.209.508v2.752a.723.723,0,0,1-.723.723h-8.273A.723.723,0,0,1,387.8,219.283Z" transform="translate(-345.526 -198.357)" fill="#33d8dd"/>
    <circle id="Ellipse_34" data-name="Ellipse 34" cx="4.747" cy="4.747" r="4.747" transform="translate(42.029 26.433)" fill="#3d6687"/>
    <circle id="Ellipse_35" data-name="Ellipse 35" cx="1.834" cy="1.834" r="1.834" transform="translate(44.942 29.346)" fill="#cccbca"/>
    <path id="Path_1133" data-name="Path 1133" d="M7.479,122.818H45.933v-27a.866.866,0,0,0-.866-.866H8.345a.866.866,0,0,0-.866.866Z" transform="translate(-6.664 -94.135)" fill="#ffc06c"/>
    <path id="Path_1134" data-name="Path 1134" d="M309.987,94.949H304.81v27.868h6.043v-27A.866.866,0,0,0,309.987,94.949Z" transform="translate(-271.583 -94.134)" fill="#eda558"/>
    <circle id="Ellipse_36" data-name="Ellipse 36" cx="4.747" cy="4.747" r="4.747" transform="translate(5.562 26.433)" fill="#3d6687"/>
    <circle id="Ellipse_37" data-name="Ellipse 37" cx="1.834" cy="1.834" r="1.834" transform="translate(8.475 29.346)" fill="#cccbca"/>
    <path id="Path_1135" data-name="Path 1135" d="M148.978,104.907h-7.719a.651.651,0,0,1-.651-.651V94.949h9.022v9.307A.651.651,0,0,1,148.978,104.907Z" transform="translate(-125.28 -94.134)" fill="#ff4c4c"/>
    <path id="Path_1136" data-name="Path 1136" d="M285.658,261.121a.815.815,0,1,0,0-1.63h-3.486a.815.815,0,0,0,0,1.63Z" transform="translate(-250.687 -240.739)"/>
    <path id="Path_1137" data-name="Path 1137" d="M235.709,261.121h1.272a.815.815,0,1,0,0-1.63h-1.272a.815.815,0,1,0,0,1.63Z" transform="translate(-209.288 -240.739)"/>
    <path id="Path_1138" data-name="Path 1138" d="M235.709,304.329h8.551a.815.815,0,0,0,0-1.63h-8.551a.815.815,0,0,0,0,1.63Z" transform="translate(-209.288 -279.237)"/>
    <path id="Path_1139" data-name="Path 1139" d="M407.45,349.2a2.649,2.649,0,1,0,2.649,2.649A2.652,2.652,0,0,0,407.45,349.2Zm0,3.668a1.019,1.019,0,1,1,1.019-1.019A1.02,1.02,0,0,1,407.45,352.87Z" transform="translate(-360.674 -320.671)"/>
    <path id="Path_1140" data-name="Path 1140" d="M72.918,349.2a2.649,2.649,0,1,0,2.649,2.649A2.652,2.652,0,0,0,72.918,349.2Zm0,3.668a1.019,1.019,0,1,1,1.019-1.019A1.02,1.02,0,0,1,72.918,352.87Z" transform="translate(-62.609 -320.671)"/>
    <path id="Path_1141" data-name="Path 1141" d="M387.389,204.9a1.548,1.548,0,0,0-1.094-.457H381.86a1.54,1.54,0,0,0-1.539,1.539v6.637a1.54,1.54,0,0,0,1.539,1.539h8.273a1.54,1.54,0,0,0,1.539-1.539v-2.752a1.531,1.531,0,0,0-.444-1.081Zm2.652,7.626h-8.089v-6.453h4.3l3.784,3.831Z" transform="translate(-338.863 -191.694)"/>
    <path id="Path_1142" data-name="Path 1142" d="M55.812,117.623V104.611a2.551,2.551,0,0,0-.741-1.8l-4.988-5.05a2.583,2.583,0,0,0-1.826-.763H40.085V89.153A1.683,1.683,0,0,0,38.4,87.472H1.681A1.683,1.683,0,0,0,0,89.153v2.152a.815.815,0,1,0,1.63,0V89.153a.051.051,0,0,1,.051-.051H14.512v8.492a1.468,1.468,0,0,0,1.466,1.466H23.7a1.468,1.468,0,0,0,1.466-1.466V89.1H38.4a.051.051,0,0,1,.051.051V115.34H14.778a5.517,5.517,0,0,0-3.306-2.127l-.08-.017q-.093-.018-.187-.033l-.131-.019-.156-.02c-.06-.007-.12-.011-.181-.016l-.119-.009c-.1-.006-.205-.009-.309-.009s-.207,0-.309.009l-.119.009c-.06,0-.121.009-.181.016l-.156.02-.132.019q-.094.015-.187.033l-.08.017a5.517,5.517,0,0,0-3.305,2.127H1.63V95.164a.815.815,0,0,0-1.63,0v22.8a2.03,2.03,0,0,0,2.027,2.027H4.91a5.562,5.562,0,0,0,10.8,0H41.377a5.562,5.562,0,0,0,10.8,0h1.277a2.362,2.362,0,0,0,2.359-2.354s0,0,0-.006A.032.032,0,0,1,55.812,117.623ZM23.534,97.43H16.143V89.1h7.391ZM5,116.981q-.049.155-.089.314c0,.019-.009.039-.014.059q-.031.129-.056.26c-.006.03-.011.059-.016.089q-.021.121-.036.244c0,.029-.008.058-.011.086-.011.1-.02.2-.026.3,0,.007,0,.014,0,.021H2.027a.4.4,0,0,1-.4-.4v-.989H5.007Zm9.213,2.1a3.931,3.931,0,0,1-7.816,0,3.985,3.985,0,0,1-.024-.43c0-.083,0-.165.009-.247,0-.022,0-.044.005-.066q.008-.1.02-.195c0-.018,0-.037.007-.055.012-.082.026-.163.043-.244,0-.009,0-.018.006-.027.015-.071.033-.141.052-.211l.018-.063q.029-.1.062-.193l.014-.042c.026-.072.055-.143.085-.213.012-.027.024-.053.036-.08.021-.046.043-.092.066-.137.014-.029.029-.057.044-.086q.05-.093.1-.183c.021-.034.043-.068.065-.1l.053-.08c.027-.039.054-.077.081-.114l.03-.039a3.938,3.938,0,0,1,2.314-1.47l.027-.006.118-.021.114-.018.1-.013.145-.014.08-.006c.077,0,.153-.007.231-.007s.154,0,.231.007l.08.006.145.014.1.013.114.018.118.021.027.006a3.938,3.938,0,0,1,2.315,1.471l.029.038c.028.038.055.076.082.115l.052.079c.022.034.044.067.066.1q.055.09.1.183c.015.028.03.057.044.086.023.045.045.091.066.137.012.027.025.053.036.08.03.07.059.141.085.213.005.014.009.028.014.043q.034.1.062.193l.018.064c.019.07.037.14.052.21,0,.009,0,.018.006.027.017.081.031.162.043.244,0,.018,0,.037.007.055q.013.1.02.194c0,.022,0,.044.005.066.005.082.009.164.009.247A3.954,3.954,0,0,1,14.217,119.082Zm24.238-.726H15.863c0-.007,0-.014,0-.02-.006-.1-.015-.2-.026-.3,0-.029-.007-.058-.011-.086q-.016-.123-.036-.244c-.005-.03-.01-.059-.016-.089q-.025-.131-.056-.26c0-.02-.009-.039-.014-.059q-.04-.159-.089-.314l0-.011H38.454Zm12.229.726a3.931,3.931,0,0,1-7.816,0,3.983,3.983,0,0,1-.024-.43,3.932,3.932,0,1,1,7.84.43Zm3.5-1.455a.73.73,0,0,1-.729.729H52.33c0-.083-.011-.165-.019-.246,0-.009,0-.017,0-.026q-.014-.138-.035-.274c0-.026-.009-.052-.014-.078-.011-.064-.021-.129-.034-.192-.007-.032-.014-.063-.022-.095-.013-.057-.025-.114-.039-.17-.009-.034-.019-.067-.028-.1-.015-.053-.029-.106-.045-.159-.011-.035-.023-.069-.034-.1-.017-.051-.033-.1-.051-.151-.013-.035-.026-.069-.04-.1s-.038-.1-.058-.146-.03-.068-.045-.1-.042-.095-.064-.141-.033-.067-.05-.1-.046-.091-.07-.136-.037-.066-.055-.1-.05-.088-.076-.131-.04-.065-.06-.1-.054-.085-.081-.127-.043-.063-.065-.094-.057-.082-.087-.122l-.069-.091c-.03-.039-.061-.078-.092-.117l-.074-.088c-.032-.038-.064-.075-.1-.112l-.078-.085q-.05-.054-.1-.107l-.082-.082-.106-.1-.086-.078-.111-.1-.09-.075-.115-.09-.094-.071-.119-.085-.1-.066-.123-.079-.1-.062-.127-.073-.1-.058-.13-.067-.107-.053c-.044-.021-.089-.041-.134-.061l-.11-.048-.137-.054-.112-.043-.141-.048-.114-.037c-.048-.015-.1-.028-.145-.041l-.115-.032c-.049-.013-.1-.023-.15-.035l-.115-.026c-.052-.01-.1-.019-.156-.028l-.114-.02c-.055-.008-.111-.015-.166-.021l-.108-.013c-.061-.006-.124-.01-.185-.014l-.092-.007q-.14-.007-.281-.007t-.281.007l-.092.007c-.062,0-.124.008-.185.014l-.108.013c-.055.007-.111.013-.166.021l-.114.02c-.052.009-.1.018-.156.028l-.115.026c-.05.011-.1.022-.15.035l-.115.032c-.049.013-.1.027-.145.041l-.114.037-.141.048-.112.043c-.046.018-.092.035-.137.054l-.109.048-.134.061-.107.053-.131.067-.1.058-.127.073-.1.062-.123.079-.1.067-.119.085-.094.071-.115.09-.09.075-.111.1-.086.078-.106.1-.082.082q-.052.053-.1.107l-.078.085c-.033.037-.065.074-.1.112l-.074.089c-.031.038-.062.078-.092.117l-.069.091c-.03.04-.058.081-.087.122s-.044.062-.065.094-.055.084-.081.127-.041.064-.06.1-.051.087-.076.131-.037.066-.055.1-.047.09-.07.136-.034.067-.05.1-.043.094-.064.141-.031.068-.045.1-.039.1-.058.146-.027.068-.04.1c-.018.05-.035.1-.051.152-.011.034-.023.068-.034.1-.016.053-.031.106-.045.159-.009.034-.019.067-.028.1-.014.056-.027.113-.039.17-.007.032-.015.063-.022.095-.013.063-.024.128-.034.192,0,.026-.01.052-.014.078q-.021.136-.035.274c0,.011,0,.022,0,.032-.008.08-.014.159-.019.24H40.085V98.625h8.173a.941.941,0,0,1,.666.278l4.988,5.05h0a.931.931,0,0,1,.27.658v13.016Z" transform="translate(0 -87.472)"/>
  </g>
</svg>
