<svg xmlns="http://www.w3.org/2000/svg" width="24" height="21.483" viewBox="0 0 24 21.483">
  <g id="Group_152640" data-name="Group 152640" transform="translate(0 -26.854)">
    <path id="Union_3" data-name="Union 3" d="M3.838,21.036a19.779,19.779,0,0,1-1.882-2.084A7.575,7.575,0,0,1,0,14.631a4.318,4.318,0,1,1,8.636,0A7.578,7.578,0,0,1,6.68,18.952,19.888,19.888,0,0,1,4.8,21.036l-.48.448Zm-2.432-6.4a6.433,6.433,0,0,0,1.659,3.456A18.991,18.991,0,0,0,4.32,19.53c1.108-1.151,2.909-3.348,2.909-4.9a2.912,2.912,0,1,0-5.823,0ZM7.13,21.224V19.818H17.1a1.875,1.875,0,1,0,0-3.749H13.172a3.281,3.281,0,1,1,0-6.562h3.7v1.406h-3.7a1.875,1.875,0,1,0,0,3.749H17.1a3.281,3.281,0,1,1,0,6.562ZM2.921,14.631a1.4,1.4,0,1,1,1.4,1.4A1.4,1.4,0,0,1,2.921,14.631ZM19.2,10.724A19.9,19.9,0,0,1,17.32,8.64a7.576,7.576,0,0,1-1.957-4.321,4.318,4.318,0,1,1,8.637,0A7.575,7.575,0,0,1,22.043,8.64a19.886,19.886,0,0,1-1.882,2.084l-.48.448Zm-2.432-6.4c0,1.552,1.8,3.752,2.912,4.9,1.108-1.15,2.913-3.349,2.913-4.9a2.912,2.912,0,1,0-5.824,0Zm1.516,0a1.4,1.4,0,1,1,1.4,1.4A1.4,1.4,0,0,1,18.285,4.319Z" transform="translate(0 26.854)" fill="#1a1a1a"/>
  </g>
</svg>
