<svg xmlns="http://www.w3.org/2000/svg" width="18" height="18" viewBox="0 0 18 18">
  <g id="tax" transform="translate(-36 -36)">
    <path id="Union_13" data-name="Union 13" d="M10.963,18a.491.491,0,0,1,0-.982H16.2a.82.82,0,0,0,.818-.818V4.909H14.891a1.8,1.8,0,0,1-1.8-1.8V.982H5.727a.821.821,0,0,0-.818.818V5.728a.491.491,0,0,1-.982,0V1.8A1.8,1.8,0,0,1,5.727,0h7.854a.472.472,0,0,1,.347.143l3.927,3.928A.484.484,0,0,1,18,4.418V16.2A1.8,1.8,0,0,1,16.2,18ZM14.073,3.109a.82.82,0,0,0,.818.818h1.435L14.073,1.673ZM0,12.928A5.073,5.073,0,1,1,5.072,18,5.077,5.077,0,0,1,0,12.928Zm.982,0A4.091,4.091,0,1,0,5.072,8.837,4.1,4.1,0,0,0,.981,12.928Zm2.781,1.8a.5.5,0,0,1-.347-.142h0a.5.5,0,0,1,0-.7L6.034,11.27a.489.489,0,0,1,.347-.142.492.492,0,0,1,.348.842L4.107,14.592a.5.5,0,0,1-.344.144Zm8.51,0a.491.491,0,1,1,0-.982h2.618a.491.491,0,1,1,0,.982ZM5.89,14.237a.491.491,0,1,1,.491.491A.491.491,0,0,1,5.89,14.237ZM3.272,11.618a.491.491,0,1,1,.491.491A.492.492,0,0,1,3.272,11.618Zm9-.163a.491.491,0,0,1,0-.983h2.618a.491.491,0,0,1,0,.983ZM10.963,8.182a.491.491,0,0,1,0-.982h3.927a.491.491,0,1,1,0,.982ZM7.036,4.909a.491.491,0,1,1,0-.982h3.927a.491.491,0,0,1,0,.982Z" transform="translate(36 36)" fill="#6b6b6b"/>
  </g>
</svg>
