<svg xmlns="http://www.w3.org/2000/svg" width="23.429" height="24" viewBox="0 0 23.429 24">
  <path id="Union_18" data-name="Union 18" d="M-95.337-1198.362a1.22,1.22,0,0,1-.356-.871v-8.818a1.936,1.936,0,0,0-.383-1.156l-.005-.008-.007-.011-7.677-10.814a1.237,1.237,0,0,1-.1-1.292,1.226,1.226,0,0,1,1.094-.668h20.963a1.226,1.226,0,0,1,1.095.668,1.235,1.235,0,0,1-.1,1.293l-7.678,10.817-.007.01,0,.005a1.964,1.964,0,0,0-.383,1.156v7.161a1.184,1.184,0,0,1-.808,1.153l-4.3,1.642a1.26,1.26,0,0,1-.478.094A1.233,1.233,0,0,1-95.337-1198.362Zm.62-11.84a3.616,3.616,0,0,1,.708,2.15v8.162l3.448-1.315v-6.848a3.619,3.619,0,0,1,.71-2.154l7.178-10.112H-101.9Z" transform="translate(104 1222)" fill="#1a1a1a"/>
</svg>
