<svg xmlns="http://www.w3.org/2000/svg" width="15.429" height="18" viewBox="0 0 15.429 18">
  <path id="Path_33718" data-name="Path 33718" d="M18.143,20H5.286A1.285,1.285,0,0,1,4,18.714V12.929a1.285,1.285,0,0,1,1.286-1.286H8.714V11A1.286,1.286,0,0,1,10,9.714h3.429V8.429a1.285,1.285,0,0,1,1.286-1.286h3.428a1.285,1.285,0,0,1,1.286,1.286V18.714A1.285,1.285,0,0,1,18.143,20ZM8.714,12.929H5.286v5.786H8.714ZM13.429,11H10v7.714h3.429Zm1.286,7.714h3.428V8.429H14.714V18.714ZM13.634,4.328a13.252,13.252,0,0,1-6.9,4.723.643.643,0,1,1-.319-1.246s4.27-1.082,6.357-4.509L11.5,3.286A.643.643,0,1,1,11.516,2l2.751.024a.641.641,0,0,1,.637.637l.024,2.688a.643.643,0,1,1-1.286.012Z" transform="translate(-4 -2)" fill="#0560fd" fill-rule="evenodd"/>
</svg>
