<svg xmlns="http://www.w3.org/2000/svg" width="18" height="15.716" viewBox="0 0 18 15.716">
  <g id="Group_152757" data-name="Group 152757" transform="translate(0 -29.05)">
    <g id="Group_152756" data-name="Group 152756" transform="translate(0 29.05)">
      <path id="Union_12" data-name="Union 12" d="M7.868,15.716H1.987a.443.443,0,0,1-.442-.442V7.51A2.583,2.583,0,0,1,0,5.149a.443.443,0,0,1,.06-.217L2.733.224A.438.438,0,0,1,3.116,0H14.882a.441.441,0,0,1,.382.224l2.678,4.708A.4.4,0,0,1,18,5.149a2.589,2.589,0,0,1-1.552,2.368.169.169,0,0,1,0,.048v7.709a.443.443,0,0,1-.442.442Zm-5.44-.879H3.991V10.07A1.513,1.513,0,0,1,5.5,8.559H6.786A1.514,1.514,0,0,1,8.3,10.07v4.763h7.271V7.727c-.051,0-.1,0-.15,0a2.578,2.578,0,0,1-2.141-1.139A2.574,2.574,0,0,1,9,6.591a2.58,2.58,0,0,1-4.28,0A2.58,2.58,0,0,1,2.583,7.731c-.052,0-.1,0-.155,0Zm2.45-4.767v4.763H7.419V10.07a.629.629,0,0,0-.629-.629H5.506A.628.628,0,0,0,4.878,10.07ZM15.419,6.848a1.707,1.707,0,0,0,1.674-1.4H13.749A1.7,1.7,0,0,0,15.419,6.848Zm-12.836,0a1.7,1.7,0,0,0,1.673-1.4H.913A1.69,1.69,0,0,0,2.583,6.844Zm8.559,0a1.7,1.7,0,0,0,1.669-1.4H9.471A1.7,1.7,0,0,0,11.141,6.844Zm-4.277,0a1.7,1.7,0,0,0,1.669-1.4H5.19A1.7,1.7,0,0,0,6.864,6.844ZM1.284,4.568H16.717L14.625.886H3.373Zm9.058,8.295a1.215,1.215,0,0,1-1.213-1.214V9.773a1.214,1.214,0,0,1,1.213-1.213h2.447A1.214,1.214,0,0,1,14,9.773v1.875a1.215,1.215,0,0,1-1.213,1.214Zm-.33-3.09v1.875a.332.332,0,0,0,.33.331h2.447a.332.332,0,0,0,.33-.331V9.773a.332.332,0,0,0-.33-.331H10.343A.332.332,0,0,0,10.012,9.773Z" transform="translate(0 0)" fill="#6b6b6b"/>
    </g>
  </g>
</svg>
