<svg xmlns="http://www.w3.org/2000/svg" width="46.863" height="47.9" viewBox="0 0 46.863 47.9">
  <g id="Group_279" data-name="Group 279" transform="translate(-5.545)">
    <g id="Group_262" data-name="Group 262" transform="translate(33.687 4.941)">
      <path id="Path_1234" data-name="Path 1234" d="M322.213,52.818h-9.771a5.528,5.528,0,0,1-6.088,6.784V72.956a.281.281,0,0,0,.281.281h15.578a.281.281,0,0,0,.281-.281V53.1A.281.281,0,0,0,322.213,52.818Z" transform="translate(-306.354 -52.818)" fill="#399aea"/>
      <path id="Path_1235" data-name="Path 1235" d="M310.249,129.325v-14.32a5.508,5.508,0,0,1-3.19,1.013,5.572,5.572,0,0,1-.707-.047v13.354a.281.281,0,0,0,.281.281h3.9A.281.281,0,0,1,310.249,129.325Z" transform="translate(-306.353 -109.187)" fill="#2986d2"/>
    </g>
    <g id="Group_273" data-name="Group 273" transform="translate(6.247 19.427)">
      <g id="Group_270" data-name="Group 270" transform="translate(4.946)">
        <g id="Group_265" data-name="Group 265" transform="translate(21.051 11.295)">
          <path id="Path_1236" data-name="Path 1236" d="M305.441,341.445V328.664a.281.281,0,0,0-.281-.281H290.925v13.062Z" transform="translate(-290.925 -328.383)" fill="#fed2a4"/>
          <path id="Path_1237" data-name="Path 1237" d="M290.925,328.383H294.1v13.062h-3.173Z" transform="translate(-290.925 -328.383)" fill="#ffbd86"/>
          <g id="Group_263" data-name="Group 263" transform="translate(5.216)">
            <path id="Path_1238" data-name="Path 1238" d="M350.481,332.06h-3.523a.281.281,0,0,1-.281-.281v-3.4h4.084v3.4A.281.281,0,0,1,350.481,332.06Z" transform="translate(-346.678 -328.383)" fill="#fe646f"/>
          </g>
          <g id="Group_264" data-name="Group 264" transform="translate(5.216)">
            <path id="Path_1239" data-name="Path 1239" d="M348.237,331.78v-3.4h-1.559v3.4a.281.281,0,0,0,.281.281h1.559A.281.281,0,0,1,348.237,331.78Z" transform="translate(-346.678 -328.383)" fill="#fd4755"/>
          </g>
        </g>
        <path id="Path_1240" data-name="Path 1240" d="M115.357,218.95V207.936a.281.281,0,0,0-.281-.281H101.122a.281.281,0,0,0-.281.281V218.95Z" transform="translate(-97.574 -207.655)" fill="#fed2a4"/>
        <path id="Path_1241" data-name="Path 1241" d="M104.022,218.95V207.936a.281.281,0,0,1,.281-.281h-3.181a.281.281,0,0,0-.281.281V218.95Z" transform="translate(-97.574 -207.655)" fill="#ffbd86"/>
        <g id="Group_266" data-name="Group 266" transform="translate(8.483)">
          <path id="Path_1242" data-name="Path 1242" d="M160.4,211.332h-3.523a.281.281,0,0,1-.281-.281v-3.4h4.084v3.4A.281.281,0,0,1,160.4,211.332Z" transform="translate(-156.594 -207.655)" fill="#fe646f"/>
        </g>
        <g id="Group_267" data-name="Group 267" transform="translate(8.483)">
          <path id="Path_1243" data-name="Path 1243" d="M158.161,211.052v-3.4h-1.567v3.4a.281.281,0,0,0,.281.281h1.567A.281.281,0,0,1,158.161,211.052Z" transform="translate(-156.594 -207.655)" fill="#fd4755"/>
        </g>
        <path id="Path_1244" data-name="Path 1244" d="M86.967,341.445V328.383H66.2a.281.281,0,0,0-.281.281v12.781Z" transform="translate(-65.916 -317.088)" fill="#f6a96c"/>
        <path id="Path_1245" data-name="Path 1245" d="M69.011,341.445V328.664a.281.281,0,0,1,.281-.281H66.2a.281.281,0,0,0-.281.281v12.781Z" transform="translate(-65.916 -317.088)" fill="#ea9b58"/>
        <g id="Group_268" data-name="Group 268" transform="translate(8.25 11.295)">
          <path id="Path_1246" data-name="Path 1246" d="M158.366,332.06h-3.99a.281.281,0,0,1-.281-.281v-3.4h4.552v3.4A.281.281,0,0,1,158.366,332.06Z" transform="translate(-154.095 -328.383)" fill="#fe646f"/>
        </g>
        <g id="Group_269" data-name="Group 269" transform="translate(8.25 11.295)">
          <path id="Path_1247" data-name="Path 1247" d="M155.677,331.78v-3.4H154.1v3.4a.281.281,0,0,0,.281.281h1.582A.281.281,0,0,1,155.677,331.78Z" transform="translate(-154.095 -328.383)" fill="#fd4755"/>
        </g>
      </g>
      <g id="Group_271" data-name="Group 271" transform="translate(0 24.263)">
        <path id="Path_1248" data-name="Path 1248" d="M58.224,470.508h-44.9a.281.281,0,0,1-.281-.281v-2.947a.281.281,0,0,1,.281-.281h44.9a.281.281,0,0,1,.281.281v2.947A.281.281,0,0,1,58.224,470.508Z" transform="translate(-13.045 -467)" fill="#fac600"/>
      </g>
      <g id="Group_272" data-name="Group 272" transform="translate(0 24.263)">
        <path id="Path_1249" data-name="Path 1249" d="M17.446,470.228v-2.947a.281.281,0,0,1,.281-.281h-4.4a.281.281,0,0,0-.281.281v2.947a.281.281,0,0,0,.281.281h4.4A.281.281,0,0,1,17.446,470.228Z" transform="translate(-13.045 -467)" fill="#e8b800"/>
      </g>
    </g>
    <g id="Group_277" data-name="Group 277" transform="translate(28.859 0.702)">
      <g id="Group_276" data-name="Group 276">
        <g id="Group_274" data-name="Group 274">
          <circle id="Ellipse_52" data-name="Ellipse 52" cx="5.535" cy="5.535" r="5.535" fill="#4fc123"/>
        </g>
        <g id="Group_275" data-name="Group 275" transform="translate(0 0)">
          <path id="Path_1250" data-name="Path 1250" d="M257.915,13.035a5.537,5.537,0,0,1,3.948-5.3,5.535,5.535,0,1,0,0,10.606A5.537,5.537,0,0,1,257.915,13.035Z" transform="translate(-254.741 -7.5)" fill="#47a920"/>
        </g>
      </g>
    </g>
    <g id="Group_278" data-name="Group 278" transform="translate(5.545)">
      <path id="Path_1251" data-name="Path 1251" d="M353.848,135.582h-7.358a.7.7,0,1,0,0,1.4h7.358a.7.7,0,1,0,0-1.4Z" transform="translate(-313.957 -122.898)"/>
      <path id="Path_1252" data-name="Path 1252" d="M354.55,174.007a.7.7,0,0,0-.7-.7h-7.358a.7.7,0,0,0,0,1.4h7.358A.7.7,0,0,0,354.55,174.007Z" transform="translate(-313.957 -157.091)"/>
      <path id="Path_1253" data-name="Path 1253" d="M346.49,211.027a.7.7,0,1,0,0,1.4h4.861a.7.7,0,1,0,0-1.4Z" transform="translate(-313.957 -191.284)"/>
      <path id="Path_1254" data-name="Path 1254" d="M51.425,224.417H47.461V212.431a.983.983,0,0,0-.982-.982h-16.8v-2.141a.7.7,0,1,0-1.4,0v2.141H15.162v-9.891h3.813v2.7a.983.983,0,0,0,.982.982H23.48a.983.983,0,0,0,.982-.982v-2.7h3.813v4.476a.7.7,0,0,0,1.4,0v-4.9a.983.983,0,0,0-.982-.982H14.741a.983.983,0,0,0-.982.982v10.313H11.474a.983.983,0,0,0-.982.982v11.986H6.527a.983.983,0,0,0-.982.982v2.947a.983.983,0,0,0,.982.982h44.9a.983.983,0,0,0,.982-.982V225.4A.983.983,0,0,0,51.425,224.417Zm-31.047-22.86h2.681v2.274H20.378Zm17.783,11.295h2.681v2.274H38.161Zm-18.017,0h3.148v2.274H20.144Zm-8.25,0h6.846v2.7a.983.983,0,0,0,.982.982h3.99a.983.983,0,0,0,.982-.982v-2.7h6.846v11.565H11.895ZM51,227.925H6.948V225.82H40.671a.7.7,0,1,0,0-1.4H32.946V212.852h3.813v2.7a.983.983,0,0,0,.982.982h3.523a.983.983,0,0,0,.982-.982v-2.7h3.813v11.565H43.945a.7.7,0,1,0,0,1.4H51Z" transform="translate(-5.545 -181.429)"/>
      <path id="Path_1255" data-name="Path 1255" d="M252.07,12.311V25.079a.983.983,0,0,0,.982.982H268.63a.983.983,0,0,0,.982-.982V18.711a.7.7,0,1,0-1.4,0v5.947H253.473V12.474h0a6.218,6.218,0,0,0,4.49-1.915h6.552a.7.7,0,0,0,0-1.4h-5.533a6.2,6.2,0,0,0,.727-2.918c0-.2-.01-.4-.029-.594h8.524v9.794a.7.7,0,1,0,1.4,0V5.222a.983.983,0,0,0-.982-.982h-9.245a6.236,6.236,0,1,0-7.315,8.072ZM253.478,1.4a4.834,4.834,0,1,1-4.834,4.834A4.839,4.839,0,0,1,253.478,1.4Z" transform="translate(-224.629)"/>
      <path id="Path_1256" data-name="Path 1256" d="M282.022,49.448a.7.7,0,0,0,.992,0l2.853-2.853a.7.7,0,1,0-.992-.992l-2.357,2.357-1.654-1.654a.7.7,0,0,0-.992.992Z" transform="translate(-254.021 -41.15)"/>
    </g>
  </g>
</svg>
