<svg xmlns="http://www.w3.org/2000/svg" width="24" height="24.001" viewBox="0 0 24 24.001">
  <g id="Group_152617" data-name="Group 152617" transform="translate(-0.016)">
    <g id="Group_152612" data-name="Group 152612" transform="translate(0.016 5.985)">
      <g id="Group_152611" data-name="Group 152611" transform="translate(0)">
        <path id="Path_1282" data-name="Path 1282" d="M23.266,132.5a.751.751,0,0,0-.75.751v8.5l-6,2.4v-7.9a.75.75,0,1,0-1.5,0v7.9l-6-2.4V129.86l3.476,1.392a.751.751,0,0,0,.556-1.395l-4.49-1.8h0l-.012,0a.743.743,0,0,0-.556,0l-.014,0h0l-7.486,3a.751.751,0,0,0-.471.7v13.512a.752.752,0,0,0,.33.622.747.747,0,0,0,.7.075l7.221-2.89,7.207,2.885h0l.014.006a.743.743,0,0,0,.557,0l.013-.006h0l7.486-3a.755.755,0,0,0,.469-.7v-9.008A.751.751,0,0,0,23.266,132.5Zm-15.75,9.249-6,2.4V132.261l6-2.4Z" transform="translate(-0.016 -128)" fill="#1a1a1a"/>
      </g>
    </g>
    <g id="Group_152614" data-name="Group 152614" transform="translate(16.535 2.992)">
      <g id="Group_152613" data-name="Group 152613">
        <path id="Path_1283" data-name="Path 1283" d="M354.26,64a2.244,2.244,0,1,0,2.244,2.244A2.247,2.247,0,0,0,354.26,64Zm0,2.992a.748.748,0,1,1,.748-.748A.748.748,0,0,1,354.26,66.992Z" transform="translate(-352.016 -64)" fill="#1a1a1a"/>
      </g>
    </g>
    <g id="Group_152616" data-name="Group 152616" transform="translate(13.543)">
      <g id="Group_152615" data-name="Group 152615">
        <path id="Path_1284" data-name="Path 1284" d="M293.253,0a5.242,5.242,0,0,0-5.237,5.237c0,2.687,4.2,7.446,4.68,7.981a.748.748,0,0,0,1.113,0c.479-.534,4.68-5.293,4.68-7.981A5.242,5.242,0,0,0,293.253,0Zm0,11.576c-1.634-1.938-3.74-4.912-3.74-6.339a3.74,3.74,0,1,1,7.481,0C296.993,6.662,294.886,9.638,293.253,11.576Z" transform="translate(-288.016)" fill="#1a1a1a"/>
      </g>
    </g>
  </g>
</svg>
