<svg xmlns="http://www.w3.org/2000/svg" width="13.093" height="19" viewBox="0 0 13.093 19">
  <g id="Group_152873" data-name="Group 152873" transform="translate(-21.059 -8)">
    <path id="Union_15" data-name="Union 15" d="M0,16.076c0-.922.826-1.729,2.327-2.271a.509.509,0,0,1,.346.957c-1.021.369-1.655.873-1.655,1.314,0,.8,2.1,1.906,5.528,1.906s5.529-1.11,5.529-1.906c0-.441-.634-.945-1.655-1.314a.509.509,0,0,1,.346-.957c1.5.543,2.327,1.349,2.327,2.271,0,1.9-3.373,2.924-6.547,2.924S0,17.975,0,16.076Zm6.206.378C5.953,16.227,0,10.823,0,6.546a6.546,6.546,0,1,1,13.093,0c0,4.276-5.953,9.68-6.206,9.908a.51.51,0,0,1-.681,0ZM1.018,6.546c0,3.284,4.275,7.629,5.528,8.831,1.253-1.2,5.529-5.551,5.529-8.831a5.529,5.529,0,1,0-11.057,0ZM4,6.546A2.545,2.545,0,1,1,6.546,9.091,2.548,2.548,0,0,1,4,6.546Zm1.018,0A1.527,1.527,0,1,0,6.546,5.02,1.529,1.529,0,0,0,5.019,6.546Z" transform="translate(21.059 8)" fill="#6b6b6b"/>
  </g>
</svg>
