<svg xmlns="http://www.w3.org/2000/svg" width="49.78" height="47.397" viewBox="0 0 49.78 47.397">
  <g id="Group_280" data-name="Group 280" transform="translate(-3 -4)">
    <path id="Path_1257" data-name="Path 1257" d="M46.866,15H18.541A3.541,3.541,0,0,0,15,18.541V39.785a3.541,3.541,0,0,0,3.541,3.541H39.785a1.18,1.18,0,0,1,.755.271l4.827,3.765a2.357,2.357,0,0,0,3.859-1.818l1.18-27A3.541,3.541,0,0,0,46.866,15Z" transform="translate(2.36 2.17)" fill="#61aff6"/>
    <path id="Path_1258" data-name="Path 1258" d="M39.587,4H6.541A3.541,3.541,0,0,0,3,7.541v23.6a3.541,3.541,0,0,0,3.541,3.541H8.476a1.188,1.188,0,0,1,1.168,1.381l-.437,2.561a2.373,2.373,0,0,0,3.045,2.644,17.479,17.479,0,0,0,4.414-2.054,17.208,17.208,0,0,0,4.379-4.1,1.18,1.18,0,0,1,.838-.437h17.7a3.541,3.541,0,0,0,3.541-3.541V7.541A3.541,3.541,0,0,0,39.587,4Z" transform="translate(0 0)" fill="#ffc06c"/>
    <path id="Path_1259" data-name="Path 1259" d="M47.244,49.226a2.36,2.36,0,0,1-1.629-.637l-5.11-4.91a1.18,1.18,0,0,0-.814-.319H18.541A3.541,3.541,0,0,1,15,39.82V34.367a1.18,1.18,0,1,1,2.36,0v5.417a1.18,1.18,0,0,0,1.18,1.18H39.69a3.623,3.623,0,0,1,2.443.968l5.11,4.933.8-4.721a.661.661,0,0,0,0-.2v-23.4a1.18,1.18,0,0,0-1.18-1.18H39.785a1.18,1.18,0,0,1,0-2.36h7.081a3.541,3.541,0,0,1,3.541,3.541v23.4a3.469,3.469,0,0,1,0,.6l-.767,4.721a2.527,2.527,0,0,1-2.4,1.959Z" transform="translate(2.36 2.17)"/>
    <path id="Path_1260" data-name="Path 1260" d="M11.533,41.378a2.36,2.36,0,0,1-2.36-2.75l.437-2.561a1.188,1.188,0,0,0-1.133-1.381H6.541A3.541,3.541,0,0,1,3,31.145V7.541A3.541,3.541,0,0,1,6.541,4H39.587a3.541,3.541,0,0,1,3.541,3.541V18.163a1.18,1.18,0,1,1-2.36,0V7.541a1.18,1.18,0,0,0-1.18-1.18H6.541a1.18,1.18,0,0,0-1.18,1.18v23.6a1.18,1.18,0,0,0,1.18,1.18H8.476a3.541,3.541,0,0,1,3.541,4.119l-.425,2.573a15.225,15.225,0,0,0,3.789-1.782,14.611,14.611,0,0,0,3.789-3.541,3.541,3.541,0,0,1,2.715-1.369h17.7a1.18,1.18,0,0,0,1.18-1.18V22.884a1.18,1.18,0,1,1,2.36,0v8.262a3.541,3.541,0,0,1-3.541,3.541h-17.7a1.18,1.18,0,0,0-.921.437,17.208,17.208,0,0,1-4.379,4.1,17.479,17.479,0,0,1-4.414,2.054,2.36,2.36,0,0,1-.637.106Z" transform="translate(0 0)"/>
    <path id="Path_1261" data-name="Path 1261" d="M22.982,24.36H11.18a1.18,1.18,0,0,1,0-2.36h11.8a1.18,1.18,0,0,1,0,2.36Z" transform="translate(1.308 3.333)"/>
    <path id="Path_1262" data-name="Path 1262" d="M32.424,18.36H11.18a1.18,1.18,0,1,1,0-2.36H32.424a1.18,1.18,0,1,1,0,2.36Z" transform="translate(1.324 2.222)"/>
    <path id="Path_1263" data-name="Path 1263" d="M32.424,12.36H11.18a1.18,1.18,0,0,1,0-2.36H32.424a1.18,1.18,0,1,1,0,2.36Z" transform="translate(1.324 1.081)"/>
  </g>
</svg>
