<svg id="Group_153115" data-name="Group 153115" xmlns="http://www.w3.org/2000/svg" width="18" height="16.079" viewBox="0 0 18 16.079">
  <path id="Path_33698" data-name="Path 33698" d="M14.593,33.328A4.492,4.492,0,0,0,9,26.316a4.494,4.494,0,0,0-5.6,7.012A6.384,6.384,0,0,0,0,39V40.93a.643.643,0,0,0,.643.643H17.358A.643.643,0,0,0,18,40.93V39A6.384,6.384,0,0,0,14.593,33.328Zm-3.021-6.541a3.21,3.21,0,0,1,1.321,6.137c-.049.022-.1.043-.149.064a3.151,3.151,0,0,1-.489.152c-.032.007-.064.011-.1.017a3.215,3.215,0,0,1-.566.057c-.086,0-.172-.006-.257-.014a.485.485,0,0,1-.1-.006,3.248,3.248,0,0,1-1.051-.31c-.012-.006-.026-.005-.039-.01-.064-.031-.129-.058-.186-.093.005-.006.008-.013.013-.02a4.51,4.51,0,0,0,.688-1.254l.02-.054a4.535,4.535,0,0,0,.17-.662c.006-.033.01-.064.015-.1a4.1,4.1,0,0,0,0-1.381c-.005-.033-.01-.064-.015-.1a4.536,4.536,0,0,0-.17-.662l-.02-.054a4.511,4.511,0,0,0-.688-1.254c-.005-.006-.008-.013-.013-.02A3.194,3.194,0,0,1,11.572,26.787ZM3.215,30A3.206,3.206,0,0,1,8.64,27.68c.037.036.074.072.11.109a3.305,3.305,0,0,1,.3.37c.028.04.054.082.08.123a3.162,3.162,0,0,1,.236.434c.016.037.028.074.042.111a3.143,3.143,0,0,1,.159.514c0,.019.006.039.01.058a3.026,3.026,0,0,1,0,1.21c0,.02-.005.039-.01.058a3.135,3.135,0,0,1-.159.514c-.014.037-.026.074-.042.111a3.173,3.173,0,0,1-.236.433c-.026.041-.052.084-.08.123a3.3,3.3,0,0,1-.3.37c-.036.037-.073.073-.11.109a3.209,3.209,0,0,1-.888.6c-.052.024-.1.046-.158.064a3.233,3.233,0,0,1-.477.148c-.04.009-.082.014-.123.021a3.189,3.189,0,0,1-.529.053H6.394a3.185,3.185,0,0,1-.529-.053c-.041-.007-.083-.012-.123-.021a3.232,3.232,0,0,1-.477-.148l-.158-.064A3.214,3.214,0,0,1,3.215,30Zm8.357,10.286H1.286V39a5.111,5.111,0,0,1,3.419-4.845,4.486,4.486,0,0,0,3.448,0,5.167,5.167,0,0,1,.626.277c.134.069.257.147.386.226.084.052.168.1.249.16.124.088.241.184.356.282.074.064.147.129.217.193.106.1.206.206.3.315.069.078.136.158.2.24.084.108.165.219.239.332.064.1.122.2.178.3s.123.221.177.336.1.241.148.364c.04.107.084.213.117.321.045.149.077.3.108.458.019.091.044.181.058.273a5.317,5.317,0,0,1,.058.769v1.286Zm5.143,0H12.858V39c0-.2-.012-.4-.03-.6-.005-.058-.014-.115-.021-.173-.017-.142-.037-.283-.064-.422q-.017-.089-.037-.179-.046-.215-.107-.426c-.013-.046-.026-.093-.04-.139a6.37,6.37,0,0,0-.775-1.624L11.76,35.4q-.166-.246-.354-.476l0-.006a5.834,5.834,0,0,0-.415-.461h.026a4.549,4.549,0,0,0,.547.039H11.6a4.545,4.545,0,0,0,.507-.033c.053-.006.1-.016.157-.024q.205-.031.4-.082c.038-.01.077-.019.115-.03a4.378,4.378,0,0,0,.514-.175A5.111,5.111,0,0,1,16.715,39v1.286Z" transform="translate(-0.001 -25.494)" fill="#0560fd"/>
</svg>
