<svg xmlns="http://www.w3.org/2000/svg" width="14.751" height="18.1" viewBox="0 0 14.751 18.1">
  <g id="Group_153141" data-name="Group 153141" transform="translate(-47 -736)">
    <g id="Group_152949" data-name="Group 152949" transform="translate(-3.95 736.05)">
      <g id="Icon_35_" transform="translate(51 0)">
        <g id="Group_152950" data-name="Group 152950">
          <path id="Union_23" data-name="Union 23" d="M8.826,17.844l-1.5-1.312-1.5,1.312a.626.626,0,0,1-.779.038L3.071,16.464.982,17.89A.628.628,0,0,1,0,17.372V1.465A1.465,1.465,0,0,1,1.465,0H13.186a1.465,1.465,0,0,1,1.465,1.465V17.372a.628.628,0,0,1-.982.518L11.58,16.464,9.605,17.882a.626.626,0,0,1-.779-.038ZM7.739,15.225l1.539,1.346,1.927-1.384a.627.627,0,0,1,.72-.008l1.47,1V1.465a.209.209,0,0,0-.209-.209H1.465a.209.209,0,0,0-.209.209V16.183l1.47-1a.627.627,0,0,1,.72.008l1.927,1.384,1.539-1.346a.627.627,0,0,1,.827,0ZM3.977,11.3a.628.628,0,1,1,0-1.256H7.326a.628.628,0,1,1,0,1.256Zm0-3.349a.628.628,0,0,1,0-1.256h6.7a.628.628,0,1,1,0,1.256Zm0-3.349a.628.628,0,1,1,0-1.256h6.7a.628.628,0,1,1,0,1.256Z"/>
          <path id="Union_23_-_Outline" data-name="Union 23 - Outline" d="M9.239,18.05a.677.677,0,0,1-.447-.168L7.326,16.6,5.858,17.882a.676.676,0,0,1-.842.041l-1.946-1.4L1.01,17.931a.678.678,0,0,1-1.06-.559V1.465A1.517,1.517,0,0,1,1.465-.05H13.186A1.517,1.517,0,0,1,14.7,1.465V17.372a.678.678,0,0,1-1.06.559l-2.06-1.406-1.947,1.4A.671.671,0,0,1,9.239,18.05ZM7.326,16.466l1.533,1.341a.576.576,0,0,0,.717.035l2-1.438L13.7,17.849a.578.578,0,0,0,.9-.477V1.465A1.417,1.417,0,0,0,13.186.05H1.465A1.417,1.417,0,0,0,.05,1.465V17.372a.578.578,0,0,0,.9.477L3.072,16.4l2,1.438a.576.576,0,0,0,.717-.035Zm1.949.17L7.706,15.263a.577.577,0,0,0-.761,0L5.376,16.635,3.417,15.228a.577.577,0,0,0-.663-.008L1.206,16.278V1.465a.26.26,0,0,1,.259-.259H13.186a.26.26,0,0,1,.259.259V16.278L11.9,15.221a.577.577,0,0,0-.663.008ZM3.08,15.02a.673.673,0,0,1,.4.127L5.37,16.508l1.509-1.32a.677.677,0,0,1,.893,0l1.509,1.32,1.9-1.361a.677.677,0,0,1,.777-.009l1.392.95V1.465a.159.159,0,0,0-.159-.159H1.465a.159.159,0,0,0-.159.159V16.088l1.392-.95A.674.674,0,0,1,3.08,15.02Zm4.246-3.668H3.977a.678.678,0,1,1,0-1.356H7.326a.678.678,0,1,1,0,1.356ZM3.977,10.1a.578.578,0,1,0,0,1.156H7.326a.578.578,0,1,0,0-1.156ZM10.674,8h-6.7a.678.678,0,0,1,0-1.356h6.7a.678.678,0,1,1,0,1.356Zm-6.7-1.256a.578.578,0,0,0,0,1.156h6.7a.578.578,0,1,0,0-1.156Zm6.7-2.093h-6.7a.678.678,0,1,1,0-1.356h6.7a.678.678,0,1,1,0,1.356ZM3.977,3.4a.578.578,0,1,0,0,1.156h6.7a.578.578,0,1,0,0-1.156Z" fill="#1a1a1a"/>
        </g>
      </g>
    </g>
  </g>
</svg>
