<svg id="Group_152942" data-name="Group 152942" xmlns="http://www.w3.org/2000/svg" width="43.849" height="49.002" viewBox="0 0 43.849 49.002">
  <g id="Group_152940" data-name="Group 152940" transform="translate(0.71 0.708)">
    <path id="Path_1371" data-name="Path 1371" d="M75.726,167.044H35.36a1.027,1.027,0,0,0-1.024,1.024v20.9a1.027,1.027,0,0,0,1.024,1.024h2.488v-8.061a.857.857,0,0,1,.854-.854H72.384a.857.857,0,0,1,.854.854v8.061h2.488a1.027,1.027,0,0,0,1.024-1.024v-20.9A1.027,1.027,0,0,0,75.726,167.044Z" transform="translate(-34.336 -151.765)" fill="#0560fd"/>
    <g id="Group_152938" data-name="Group 152938" transform="translate(0 15.279)">
      <g id="Group_152937" data-name="Group 152937">
        <path id="Path_1372" data-name="Path 1372" d="M38.45,168.068a1.027,1.027,0,0,1,1.024-1.024H35.359a1.027,1.027,0,0,0-1.024,1.024v20.9a1.027,1.027,0,0,0,1.024,1.024h2.488v-8.061a.858.858,0,0,1,.6-.816Z" transform="translate(-34.335 -167.044)" fill="#4988f5"/>
      </g>
    </g>
    <path id="Path_1373" data-name="Path 1373" d="M66.959,357.711v4.7h5.1v-4.7Z" transform="translate(-63.837 -324.184)" fill="#544e55"/>
    <path id="Path_1374" data-name="Path 1374" d="M391.553,357.711v4.7h5.1v-4.7Z" transform="translate(-357.365 -324.184)" fill="#695d67"/>
    <path id="Path_1375" data-name="Path 1375" d="M144.985,7.394h-18.7l-6,6v9.28h25.962V8.657A1.263,1.263,0,0,0,144.985,7.394Z" transform="translate(-112.06 -7.394)" fill="#dfebfa"/>
    <g id="Group_152939" data-name="Group 152939" transform="translate(8.226 2.522)">
      <path id="Path_1376" data-name="Path 1376" d="M120.286,37.226v9.28h3.477V33.749Z" transform="translate(-120.286 -33.749)" fill="#4988f5"/>
    </g>
    <path id="Path_1377" data-name="Path 1377" d="M120.286,356.711v12.8a1.335,1.335,0,0,0,1.335,1.335h23.293a1.335,1.335,0,0,0,1.335-1.335v-12.8Z" transform="translate(-112.06 -323.279)" fill="#dfebfa"/>
    <path id="Path_1378" data-name="Path 1378" d="M123.763,369.511v-12.8h-3.477v12.8a1.335,1.335,0,0,0,1.335,1.335H125.1A1.335,1.335,0,0,1,123.763,369.511Z" transform="translate(-112.06 -323.279)" fill="#4988f5"/>
    <circle id="Ellipse_992" data-name="Ellipse 992" cx="1.706" cy="1.706" r="1.706" transform="translate(33.205 21.145) rotate(-22.514)" fill="#ff656f"/>
    <path id="Path_1379" data-name="Path 1379" d="M388.337,221.959a1.7,1.7,0,0,1,.853-1.476,1.706,1.706,0,1,0,0,2.951A1.7,1.7,0,0,1,388.337,221.959Z" transform="translate(-352.914 -199.881)" fill="#ff4756"/>
    <path id="Path_1380" data-name="Path 1380" d="M120.286,13.394h4.736a1.263,1.263,0,0,0,1.263-1.263V7.394Z" transform="translate(-112.06 -7.394)" fill="#b1dbfc"/>
    <path id="Path_1381" data-name="Path 1381" d="M126.286,10.887V7.394l-6,6h3.493Z" transform="translate(-112.06 -7.394)" fill="#4988f5"/>
    <path id="Path_1382" data-name="Path 1382" d="M103.128,315.2V311.47a.876.876,0,0,0-.873-.873H67.832a.876.876,0,0,0-.873.873V315.2h36.169Z" transform="translate(-63.837 -281.579)" fill="#0560fd"/>
    <path id="Path_1383" data-name="Path 1383" d="M72.936,310.6h-5.1a.876.876,0,0,0-.873.873V315.2h5.1v-3.732A.876.876,0,0,1,72.936,310.6Z" transform="translate(-63.837 -281.579)" fill="#4988f5"/>
  </g>
  <g id="Group_152941" data-name="Group 152941">
    <path id="Path_1384" data-name="Path 1384" d="M153.933,385.879h18.239a.718.718,0,0,0,0-1.436H153.933a.718.718,0,0,0,0,1.436Z" transform="translate(-141.128 -347.65)"/>
    <path id="Path_1385" data-name="Path 1385" d="M153.933,417.67h18.239a.718.718,0,1,0,0-1.436H153.933a.718.718,0,0,0,0,1.436Z" transform="translate(-141.128 -376.398)"/>
    <path id="Path_1386" data-name="Path 1386" d="M153.933,449.462h18.239a.718.718,0,0,0,0-1.436H153.933a.718.718,0,0,0,0,1.436Z" transform="translate(-141.128 -405.147)"/>
    <path id="Path_1387" data-name="Path 1387" d="M379.212,215.283a2.423,2.423,0,1,0,2.423-2.423A2.426,2.426,0,0,0,379.212,215.283Zm3.411,0a.988.988,0,1,1-.988-.988A.989.989,0,0,1,382.623,215.283Z" transform="translate(-345.495 -192.488)"/>
    <path id="Path_1388" data-name="Path 1388" d="M70.049,26.332a.718.718,0,0,0,.718-.718V17.021a1.744,1.744,0,0,0-1.742-1.742H62.54V1.981A1.983,1.983,0,0,0,60.559,0H50.516a.718.718,0,1,0,0,1.436H60.559a.546.546,0,0,1,.545.545v13.3H36.578V7.435H40.6a1.983,1.983,0,0,0,1.981-1.981V1.436h4.589a.718.718,0,0,0,0-1.436H41.86a.726.726,0,0,0-.507.209h0l-6,6a.727.727,0,0,0-.211.508V15.28H28.659a1.744,1.744,0,0,0-1.742,1.742v20.9a1.744,1.744,0,0,0,1.742,1.742h6.484v7.286A2.055,2.055,0,0,0,37.2,49H60.488a2.055,2.055,0,0,0,2.052-2.052V39.664h6.484a1.744,1.744,0,0,0,1.742-1.742V28.963a.718.718,0,1,0-1.436,0v8.958a.31.31,0,0,1-.306.306h-1.38V30.609a1.593,1.593,0,0,0-1.591-1.591H31.63a1.593,1.593,0,0,0-1.591,1.591v7.618h-1.38a.31.31,0,0,1-.306-.306v-20.9a.31.31,0,0,1,.306-.306H69.025a.31.31,0,0,1,.306.306v8.592A.718.718,0,0,0,70.049,26.332ZM41.143,2.451v3A.546.546,0,0,1,40.6,6h-3ZM61.1,46.949a.617.617,0,0,1-.617.617H37.2a.617.617,0,0,1-.617-.617V35.059H61.1C61.1,35.717,61.1,46.288,61.1,46.949Zm5.1-8.721H62.54V35.059h3.668ZM31.475,30.61a.158.158,0,0,1,.156-.155H66.053a.158.158,0,0,1,.156.155v3.014H31.475Zm0,4.449h3.668v3.169H31.475Z" transform="translate(-26.917 0)"/>
  </g>
</svg>
