<svg id="Group_220" data-name="Group 220" xmlns="http://www.w3.org/2000/svg" width="48" height="47.999" viewBox="0 0 48 47.999">
  <g id="Group_215" data-name="Group 215" transform="translate(0.764 0.698)">
    <g id="Group_199" data-name="Group 199" transform="translate(7.913 0)">
      <ellipse id="Ellipse_42" data-name="Ellipse 42" cx="15.324" cy="15.707" rx="15.324" ry="15.707" fill="#69d6f4"/>
    </g>
    <g id="Group_200" data-name="Group 200" transform="translate(6.112 35.842)">
      <path id="Path_1160" data-name="Path 1160" d="M22.223,54.876a3.82,3.82,0,0,0-7.64,0,3.6,3.6,0,0,0,.076.764H10V48H32.919v7.64H22.147A3.6,3.6,0,0,0,22.223,54.876Z" transform="translate(-10 -48)" fill="#ffeaa7"/>
    </g>
    <g id="Group_201" data-name="Group 201" transform="translate(29.664 25.146)">
      <path id="Path_1161" data-name="Path 1161" d="M54.515,52.335h-3.9a3.6,3.6,0,0,0,.076-.764,3.82,3.82,0,0,0-7.64,0,3.529,3.529,0,0,0,.076.756l-.076.008H40V38.584A4.587,4.587,0,0,1,44.584,34H50.7a6.088,6.088,0,0,1,5.287,3.056h-11.4a1.532,1.532,0,0,0-1.528,1.528v4.584H56.807v6.876A2.289,2.289,0,0,1,54.515,52.335Z" transform="translate(-40 -34)" fill="#fcd770"/>
    </g>
    <g id="Group_202" data-name="Group 202" transform="translate(32.72 38.898)">
      <path id="Path_1162" data-name="Path 1162" d="M51.64,55.82a3.6,3.6,0,0,1-.076.764,3.82,3.82,0,0,1-7.487-.008A3.529,3.529,0,0,1,44,55.82a3.82,3.82,0,1,1,7.64,0Z" transform="translate(-44 -52)" fill="#969faa"/>
    </g>
    <g id="Group_203" data-name="Group 203" transform="translate(10.873 38.898)">
      <path id="Path_1163" data-name="Path 1163" d="M23.64,55.82a3.6,3.6,0,0,1-.076.764,3.821,3.821,0,0,1-7.487,0A3.6,3.6,0,0,1,16,55.82a3.82,3.82,0,0,1,7.64,0Z" transform="translate(-16 -52)" fill="#969faa"/>
    </g>
    <g id="Group_204" data-name="Group 204" transform="translate(32.72 28.008)">
      <path id="Path_1164" data-name="Path 1164" d="M57.751,41.056v3.056H44V39.528A1.532,1.532,0,0,1,45.528,38h11.4A6,6,0,0,1,57.751,41.056Z" transform="translate(-44 -38)" fill="#4fc1e9"/>
    </g>
    <g id="Group_205" data-name="Group 205" transform="translate(17.098 28.025)">
      <path id="Path_1165" data-name="Path 1165" d="M31.64,38H25.528A1.532,1.532,0,0,0,24,39.528v4.584a1.532,1.532,0,0,0,1.528,1.528H31.64a1.532,1.532,0,0,0,1.528-1.528V39.528A1.532,1.532,0,0,0,31.64,38Z" transform="translate(-24 -38)" fill="#e38126"/>
    </g>
    <g id="Group_206" data-name="Group 206" transform="translate(7.772 28.025)">
      <path id="Path_1166" data-name="Path 1166" d="M19.64,38H13.528A1.532,1.532,0,0,0,12,39.528v4.584a1.532,1.532,0,0,0,1.528,1.528H19.64a1.532,1.532,0,0,0,1.528-1.528V39.528A1.532,1.532,0,0,0,19.64,38Z" transform="translate(-12 -38)" fill="#e38126"/>
    </g>
    <g id="Group_207" data-name="Group 207" transform="translate(12.435 20.259)">
      <path id="Path_1167" data-name="Path 1167" d="M25.64,28H19.528A1.532,1.532,0,0,0,18,29.528v4.584a1.532,1.532,0,0,0,1.528,1.528H25.64a1.532,1.532,0,0,0,1.528-1.528V29.528A1.532,1.532,0,0,0,25.64,28Z" transform="translate(-18 -28)" fill="#e38126"/>
    </g>
    <g id="Group_208" data-name="Group 208" transform="translate(20.157 27.976)">
      <path id="Path_1168" data-name="Path 1168" d="M28,38h3.056v3.056H28Z" transform="translate(-28 -38)" fill="#eb8f1d"/>
    </g>
    <g id="Group_209" data-name="Group 209" transform="translate(10.854 27.976)">
      <path id="Path_1169" data-name="Path 1169" d="M16,38h3.056v3.056H16Z" transform="translate(-16 -38)" fill="#eb8f1d"/>
    </g>
    <g id="Group_210" data-name="Group 210" transform="translate(15.506 20.224)">
      <path id="Path_1170" data-name="Path 1170" d="M22,28h3.056v3.056H22Z" transform="translate(-22 -28)" fill="#eb8f1d"/>
    </g>
    <g id="Group_211" data-name="Group 211" transform="translate(32.72 0.066)">
      <path id="Path_1171" data-name="Path 1171" d="M57.751,8.876V9.09A6.919,6.919,0,0,1,56.6,12.9L52.06,19.7a1.418,1.418,0,0,1-1.184.634,1.386,1.386,0,0,1-1.008-.428,1.14,1.14,0,0,1-.176-.206l-4.538-6.8A6.919,6.919,0,0,1,44,9.09V8.876A6.837,6.837,0,0,1,44.779,5.7a6.736,6.736,0,0,1,1.238-1.681A6.871,6.871,0,0,1,57.751,8.876Z" transform="translate(-44 -2)" fill="#ff826e"/>
    </g>
    <g id="Group_212" data-name="Group 212" transform="translate(0 0.066)">
      <path id="Path_1172" data-name="Path 1172" d="M15.751,8.876V9.09A6.919,6.919,0,0,1,14.6,12.9L10.06,19.7a1.14,1.14,0,0,1-.176.206,1.386,1.386,0,0,1-1.008.428A1.418,1.418,0,0,1,7.692,19.7L3.154,12.9A6.919,6.919,0,0,1,2,9.09V8.876a6.876,6.876,0,0,1,13.751,0Z" transform="translate(-2 -2)" fill="#ff826e"/>
    </g>
    <g id="Group_213" data-name="Group 213" transform="translate(35.046 3.831)">
      <circle id="Ellipse_43" data-name="Ellipse 43" cx="3.831" cy="3.831" r="3.831" fill="#ffeaa7"/>
    </g>
    <g id="Group_214" data-name="Group 214" transform="translate(3.765 3.831)">
      <circle id="Ellipse_44" data-name="Ellipse 44" cx="3.831" cy="3.831" r="3.831" fill="#ffeaa7"/>
    </g>
  </g>
  <g id="Group_216" data-name="Group 216">
    <path id="Path_1173" data-name="Path 1173" d="M51.584,14.168A4.584,4.584,0,1,0,47,9.584,4.588,4.588,0,0,0,51.584,14.168Zm0-7.64a3.056,3.056,0,1,1-3.056,3.056A3.059,3.059,0,0,1,51.584,6.528Z" transform="translate(-11.224 -1.944)"/>
    <path id="Path_1174" data-name="Path 1174" d="M14.168,9.584a4.584,4.584,0,1,0-4.584,4.584A4.588,4.588,0,0,0,14.168,9.584ZM9.584,12.64A3.056,3.056,0,1,1,12.64,9.584,3.059,3.059,0,0,1,9.584,12.64Z" transform="translate(-1.944 -1.944)"/>
    <path id="Path_1175" data-name="Path 1175" d="M41.257,21.129a2.219,2.219,0,0,0,1.848-.989L47.7,13.25A7.715,7.715,0,0,0,49,8.955V8.742A7.738,7.738,0,0,0,34.873,4.373a16.135,16.135,0,0,0-19.745,0A7.738,7.738,0,0,0,1,8.742v.213a7.719,7.719,0,0,0,1.3,4.294l4.594,6.89a2.215,2.215,0,0,0,1.847.989,2.185,2.185,0,0,0,.473-.059A16.145,16.145,0,0,0,13.477,28.7c.015.056.033.111.052.166H11.064a2.325,2.325,0,0,0-2.323,2.323v4.645a2.3,2.3,0,0,0,.142.774H7.193V45.9h4.916a4.638,4.638,0,0,0,8.748,0H33.787a4.638,4.638,0,0,0,8.748,0H45.9a3.1,3.1,0,0,0,3.1-3.1V32.741a6.975,6.975,0,0,0-6.968-6.968H38.826a16.36,16.36,0,0,0,1.962-4.7A2.2,2.2,0,0,0,41.257,21.129Zm0-18.58a6.2,6.2,0,0,1,6.193,6.193v.213a6.179,6.179,0,0,1-1.041,3.436l-4.594,6.89a.7.7,0,0,1-1.119,0L36.1,12.391a6.183,6.183,0,0,1-1.04-3.436V8.742a6.2,6.2,0,0,1,6.193-6.193ZM31.186,16.484a41.406,41.406,0,0,0-.568-6.193h3.026a7.716,7.716,0,0,0,1.173,2.959l2.155,3.235Zm-.767,20.129H28.728a2.3,2.3,0,0,0,.142-.774V33.046a16.1,16.1,0,0,0,1.548-.464ZM19.58,35.838V31.193a.774.774,0,0,1,.774-.774h.774v3.1h4.645v-3.1h.774a.774.774,0,0,1,.774.774v4.645a.774.774,0,0,1-.774.774H20.355A.774.774,0,0,1,19.58,35.838Zm-6.193-5.419h1.548v1.548H13.387ZM16.356,10.29h3.026a41.3,41.3,0,0,0-.568,6.193H13.028l2.156-3.235A7.715,7.715,0,0,0,16.356,10.29Zm-4.361,7.742h6.832q.027,1.575.163,3.1h-3.28a2.325,2.325,0,0,0-2.323,2.323v2.807A14.567,14.567,0,0,1,10.6,20.13Zm6.037,4.645H19.58v1.548H18.032Zm-2.323,6.193a.774.774,0,0,1-.774-.774V23.451a.774.774,0,0,1,.774-.774h.774v3.1h4.645v-3.1H21.9a.774.774,0,0,1,.774.774V28.1a.774.774,0,0,1-.774.774H15.709Zm6.968,1.548h1.548v1.548H22.677Zm4.948-1.271a2.292,2.292,0,0,0-1.077-.277H24.083a2.3,2.3,0,0,0,.142-.774V25.774h4.508A18.992,18.992,0,0,1,27.625,29.148Zm1.431-4.922H24.225v-.774A2.325,2.325,0,0,0,21.9,21.129H20.542c-.093-1.012-.149-2.046-.167-3.1h9.262A39.055,39.055,0,0,1,29.056,24.225Zm-8.688-7.742a39.041,39.041,0,0,1,.574-6.193h8.117a39.04,39.04,0,0,1,.574,6.193ZM25,2.548c1.366,0,2.83,2.34,3.741,6.193H21.258C22.17,4.888,23.633,2.548,25,2.548Zm8.516,6.193h-3.2A16.548,16.548,0,0,0,28,2.874,14.72,14.72,0,0,1,34.119,5.75,7.689,7.689,0,0,0,33.516,8.742ZM21.994,2.874a16.548,16.548,0,0,0-2.309,5.868h-3.2a7.7,7.7,0,0,0-.6-2.993A14.709,14.709,0,0,1,21.994,2.874ZM8.182,19.281l-4.594-6.89a6.183,6.183,0,0,1-1.04-3.436V8.742a6.193,6.193,0,1,1,12.387,0v.213a6.179,6.179,0,0,1-1.04,3.436L9.3,19.281A.7.7,0,0,1,8.182,19.281ZM10.29,35.838V31.193a.774.774,0,0,1,.774-.774h.774v3.1h4.645v-3.1h.774a.774.774,0,0,1,.774.774v4.645a.774.774,0,0,1-.774.774H11.064A.774.774,0,0,1,10.29,35.838Zm6.193,11.613a3.1,3.1,0,1,1,3.1-3.1A3.1,3.1,0,0,1,16.484,47.451Zm0-7.742a4.65,4.65,0,0,0-4.645,4.645h-3.1V38.161H30.419v6.193h-9.29A4.65,4.65,0,0,0,16.484,39.709Zm21.677,7.742a3.1,3.1,0,1,1,3.1-3.1A3.1,3.1,0,0,1,38.161,47.451Zm9.29-12.387H35.064V31.193a.774.774,0,0,1,.774-.774H46.921a5.385,5.385,0,0,1,.53,2.323Zm-1.634-6.193H35.838a2.325,2.325,0,0,0-2.323,2.323v5.419H47.451v6.193A1.55,1.55,0,0,1,45.9,44.354h-3.1a4.645,4.645,0,1,0-9.29,0H31.967V31.193a3.875,3.875,0,0,1,3.871-3.871h6.193A5.4,5.4,0,0,1,45.817,28.871Zm-9.978-3.1a5.423,5.423,0,0,0-5.405,5.137,14.787,14.787,0,0,1-1.562.522v-.239a2.3,2.3,0,0,0-.142-.772C30.2,27.571,31.1,23.01,31.185,18.032H38l1.4,2.1a14.758,14.758,0,0,1-2.433,5.641Z" transform="translate(-1 -1)"/>
  </g>
</svg>
