<svg xmlns="http://www.w3.org/2000/svg" width="24" height="19.2" viewBox="0 0 24 19.2">
  <g id="Group_152884" data-name="Group 152884" transform="translate(0 -0.332)">
    <path id="Union_16" data-name="Union 16" d="M19.8,19.2a.6.6,0,1,1,0-1.2h3V15A.6.6,0,0,1,24,15v3.6a.6.6,0,0,1-.6.6ZM.6,19.2a.6.6,0,0,1-.6-.6V15a.6.6,0,1,1,1.2,0v3h3a.6.6,0,0,1,0,1.2Zm18-3.6A.6.6,0,0,1,18,15V4.2a.6.6,0,0,1,.6-.6h1.2a.6.6,0,0,1,.6.6V15a.6.6,0,0,1-.6.6Zm-3-.6V4.2a.6.6,0,0,1,1.2,0V15a.6.6,0,1,1-1.2,0Zm-3,.6A.6.6,0,0,1,12,15V4.2a.6.6,0,0,1,.6-.6h1.2a.6.6,0,0,1,.6.6V15a.6.6,0,0,1-.6.6Zm-3-.6V4.2a.6.6,0,0,1,1.2,0V15a.6.6,0,1,1-1.2,0Zm-3,.6A.6.6,0,0,1,6,15V4.2a.6.6,0,0,1,.6-.6H7.8a.6.6,0,0,1,.6.6V15a.6.6,0,0,1-.6.6Zm-3-.6V4.2a.6.6,0,0,1,1.2,0V15a.6.6,0,1,1-1.2,0ZM22.8,4.2v-3h-3a.6.6,0,1,1,0-1.2h3.6a.6.6,0,0,1,.6.6V4.2a.6.6,0,1,1-1.2,0ZM0,4.2V.6A.6.6,0,0,1,.6,0H4.2a.6.6,0,0,1,0,1.2h-3v3A.6.6,0,1,1,0,4.2Z" transform="translate(0 0.332)" fill="#0560fd"/>
  </g>
</svg>
