<svg xmlns="http://www.w3.org/2000/svg" width="14" height="13.998" viewBox="0 0 14 13.998">
  <g id="Shop_icon" data-name="Shop icon" transform="translate(0 -0.042)">
    <path id="Union_4" data-name="Union 4" d="M.41,14a.41.41,0,0,1,0-.821H.821V4.339A1.7,1.7,0,0,1,.187,2.12C.193,2.107.2,2.1.205,2.083L1.2.217A.412.412,0,0,1,1.559,0H12.5a.411.411,0,0,1,.367.227l.905,1.81c.007.011.014.021.02.033a1.7,1.7,0,0,1-.625,2.281v8.826h.41a.41.41,0,0,1,0,.821Zm1.23-.821h10.7V4.6l-.072,0a1.731,1.731,0,0,1-1.318-.606,1.736,1.736,0,0,1-2.635,0,1.736,1.736,0,0,1-2.635,0,1.736,1.736,0,0,1-2.635,0A1.73,1.73,0,0,1,1.733,4.6l-.093,0Zm9.724-10.29a.908.908,0,0,0,1.815,0,.863.863,0,0,0-.084-.377.282.282,0,0,1-.031-.052L12.245.821H1.8L.945,2.437a.236.236,0,0,1-.017.036.871.871,0,0,0-.1.414.907.907,0,0,0,1.814,0,.41.41,0,1,1,.821,0,.908.908,0,0,0,1.815,0,.41.41,0,1,1,.821,0,.908.908,0,0,0,1.815,0,.41.41,0,1,1,.82,0,.908.908,0,0,0,1.816,0,.41.41,0,1,1,.819,0ZM3.657,8.868A3.344,3.344,0,1,1,7,12.212,3.347,3.347,0,0,1,3.657,8.868Zm.82,0A2.523,2.523,0,1,0,7,6.344,2.526,2.526,0,0,0,4.477,8.868ZM7,9.322a.409.409,0,0,1-.41-.41V7.833a.41.41,0,0,1,.821,0V8.5H8.04a.41.41,0,0,1,0,.82Z" transform="translate(0 0.042)" fill="#6b6b6b"/>
  </g>
</svg>
