<svg xmlns="http://www.w3.org/2000/svg" width="24" height="21.126" viewBox="0 0 24 21.126">
  <path id="Union_33" data-name="Union 33" d="M17.964,21.125h-.04l-.035,0h0a1.088,1.088,0,0,1-.163-.035l-.005,0-.013-.005a.014.014,0,0,1-.01,0H17.69a.883.883,0,0,1-.3-.186L12.231,15.9a.855.855,0,0,1,1.188-1.231l3.712,3.585V3.7a.855.855,0,0,1,1.71,0v14.55l3.711-3.585A.855.855,0,0,1,23.74,15.9l-5.16,4.987a.832.832,0,0,1-.185.134l-.006,0-.01.005a.876.876,0,0,1-.294.09h0l-.034,0h-.084Zm-12.8-3.7V2.87L1.449,6.458A.856.856,0,0,1,.261,5.226L5.421.238s0,0,.006-.005.005,0,.007-.007.006,0,.01-.008,0,0,.007-.005L5.461.2s0,0,.007-.005A.146.146,0,0,0,5.482.186h0L5.5.171A.859.859,0,0,1,6.609.238l5.159,4.987a.856.856,0,0,1-1.188,1.232L6.87,2.871v14.55a.855.855,0,0,1-1.71,0Z" transform="translate(0 0)" fill="#1a1a1a"/>
</svg>
