<svg id="Group_260" data-name="Group 260" xmlns="http://www.w3.org/2000/svg" width="23.361" height="23.49" viewBox="0 0 23.361 23.49">
  <g id="Group_258" data-name="Group 258" transform="translate(0.344 0.344)">
    <g id="Group_245" data-name="Group 245" transform="translate(2.663 3.487)">
      <path id="Path_1223" data-name="Path 1223" d="M71.76,93.116h8.746a4.808,4.808,0,0,0,0-9.616H67.919a.87.87,0,1,0,0,1.74H80.506a3.068,3.068,0,0,1,0,6.137H71.76a4.808,4.808,0,1,0,0,9.616H83.291a.87.87,0,1,0,0-1.74H71.76a3.068,3.068,0,1,1,0-6.136Z" transform="translate(-66.952 -83.5)" fill="#918291"/>
    </g>
    <g id="Group_246" data-name="Group 246" transform="translate(16.251 14.584)">
      <path id="Path_1224" data-name="Path 1224" d="M369.531,328.574c0,1.8-1.861,3.908-2.75,4.811a.66.66,0,0,1-.933.009c-.892-.874-2.739-2.912-2.739-4.82a3.211,3.211,0,1,1,6.422,0Z" transform="translate(-363.109 -325.363)" fill="#fd8087"/>
    </g>
    <g id="Group_247" data-name="Group 247" transform="translate(17.88 14.943)">
      <path id="Path_1225" data-name="Path 1225" d="M401.677,333.192a3.2,3.2,0,0,1,.359,1.475c0,1.8-1.861,3.908-2.75,4.811a.66.66,0,0,1-.667.168,14.354,14.354,0,0,0,1.11,1.218.66.66,0,0,0,.933-.009c.888-.9,2.75-3.007,2.75-4.811A3.21,3.21,0,0,0,401.677,333.192Z" transform="translate(-398.62 -333.192)" fill="#fe646f"/>
    </g>
    <g id="Group_248" data-name="Group 248" transform="translate(0)">
      <path id="Path_1226" data-name="Path 1226" d="M15.328,10.711c0,1.8-1.861,3.908-2.75,4.811a.66.66,0,0,1-.933.009c-.892-.874-2.739-2.912-2.739-4.82a3.211,3.211,0,1,1,6.422,0Z" transform="translate(-8.906 -7.5)" fill="#ffc06c"/>
    </g>
    <g id="Group_249" data-name="Group 249" transform="translate(1.629 0.359)">
      <path id="Path_1227" data-name="Path 1227" d="M47.474,15.33a3.2,3.2,0,0,1,.359,1.475c0,1.8-1.861,3.908-2.75,4.811a.66.66,0,0,1-.667.168A14.355,14.355,0,0,0,45.527,23a.66.66,0,0,0,.933-.009c.888-.9,2.75-3.007,2.75-4.811A3.21,3.21,0,0,0,47.474,15.33Z" transform="translate(-44.417 -15.33)" fill="#d79133"/>
    </g>
    <g id="Group_250" data-name="Group 250" transform="translate(14.938 2.976)">
      <circle id="Ellipse_47" data-name="Ellipse 47" cx="1.633" cy="1.633" r="1.633" fill="#60b7ff"/>
    </g>
    <g id="Group_251" data-name="Group 251" transform="translate(6.106 10.488)">
      <circle id="Ellipse_48" data-name="Ellipse 48" cx="1.633" cy="1.633" r="1.633" fill="#ffe177"/>
    </g>
    <g id="Group_252" data-name="Group 252" transform="translate(8.345 18.285)">
      <circle id="Ellipse_49" data-name="Ellipse 49" cx="1.633" cy="1.633" r="1.633" transform="matrix(0.16, -0.987, 0.987, 0.16, 0, 3.224)" fill="#9be69d"/>
    </g>
    <g id="Group_253" data-name="Group 253" transform="translate(17.463 15.872)">
      <circle id="Ellipse_50" data-name="Ellipse 50" cx="1.535" cy="1.535" r="1.535" transform="translate(0 1.176) rotate(-22.514)" fill="#faf7f7"/>
    </g>
    <g id="Group_254" data-name="Group 254" transform="translate(14.973 3.125)">
      <path id="Path_1228" data-name="Path 1228" d="M337.535,75.61a1.633,1.633,0,0,1-2.279,1.822,1.633,1.633,0,1,0,2.279-1.822Z" transform="translate(-335.256 -75.61)" fill="#26a6fe"/>
    </g>
    <g id="Group_255" data-name="Group 255" transform="translate(6.141 10.637)">
      <path id="Path_1229" data-name="Path 1229" d="M145.025,239.339a1.633,1.633,0,0,1-2.279,1.822,1.633,1.633,0,1,0,2.279-1.822Z" transform="translate(-142.746 -239.339)" fill="#ffd15b"/>
    </g>
    <g id="Group_256" data-name="Group 256" transform="translate(8.624 18.676)">
      <path id="Path_1230" data-name="Path 1230" d="M199.157,414.562a1.633,1.633,0,0,1-2.279,1.822,1.633,1.633,0,1,0,2.279-1.822Z" transform="translate(-196.878 -414.562)" fill="#6fd7a3"/>
    </g>
    <g id="Group_257" data-name="Group 257" transform="translate(1.206 1.292)">
      <circle id="Ellipse_51" data-name="Ellipse 51" cx="1.535" cy="1.535" r="1.535" transform="translate(0 1.176) rotate(-22.514)" fill="#faf7f7"/>
    </g>
  </g>
  <g id="Group_259" data-name="Group 259">
    <path id="Path_1231" data-name="Path 1231" d="M21.212,14.584a3.559,3.559,0,0,0-3.555,3.555,3.927,3.927,0,0,0,.169,1.1H13.491a1.974,1.974,0,0,0-3.036,0H9.221a2.724,2.724,0,0,1-1-5.258,1.974,1.974,0,0,0,2.734-.191h2.639a.344.344,0,0,0,0-.688H11.36a1.971,1.971,0,0,0,.062-1.051h6.545A3.411,3.411,0,0,0,20.04,5.93a1.965,1.965,0,0,0,.259-.976c0-.041,0-.082,0-.122A4.463,4.463,0,0,1,17.967,13.1H15.2a.344.344,0,0,0,0,.688h2.767a5.152,5.152,0,0,0,2.057-9.876L20,3.905a1.975,1.975,0,0,0-3-.418H11.006a.344.344,0,0,0,0,.688h5.5a1.966,1.966,0,0,0-.141,1.051H8.119a4.906,4.906,0,0,0,.336-1.051H9.4a.344.344,0,0,0,0-.688H8.514a3.554,3.554,0,0,0-7.108.068A5.533,5.533,0,0,0,2.5,6.544a13.572,13.572,0,0,0,1.75,2.077,1.007,1.007,0,0,0,1.419-.014A14.975,14.975,0,0,0,7.417,6.489q.195-.292.355-.574h8.822A1.974,1.974,0,0,0,19.6,6.46a2.723,2.723,0,0,1-1.633,4.9H11.13a1.976,1.976,0,0,0-3.412.225,5.2,5.2,0,0,0-2.6,1.819,5.1,5.1,0,0,0-1.046,3.108,5.158,5.158,0,0,0,5.152,5.152h1.153a1.975,1.975,0,0,0,3.2,0h5.566A14.34,14.34,0,0,0,20.5,23.2a1.007,1.007,0,0,0,1.419-.013,14.975,14.975,0,0,0,1.749-2.118,5.512,5.512,0,0,0,1.1-2.934,3.559,3.559,0,0,0-3.555-3.555ZM5.177,8.124a.317.317,0,0,1-.447,0c-.793-.776-2.636-2.775-2.636-4.574a2.867,2.867,0,1,1,5.734,0C7.828,5.25,5.974,7.315,5.177,8.124ZM18.322,6.243a1.289,1.289,0,1,1,1.289-1.289A1.291,1.291,0,0,1,18.322,6.243ZM9.489,11.177A1.289,1.289,0,1,1,8.2,12.466,1.291,1.291,0,0,1,9.489,11.177Zm-.268,9.8a4.469,4.469,0,0,1-4.464-4.464,4.42,4.42,0,0,1,.906-2.692,4.519,4.519,0,0,1,1.85-1.431c0,.024,0,.049,0,.073a1.965,1.965,0,0,0,.252.965,3.412,3.412,0,0,0,1.457,6.5h.86a1.975,1.975,0,0,0-.028,1.051Zm2.751.815a1.289,1.289,0,1,1,1.289-1.289A1.291,1.291,0,0,1,11.973,21.795Zm1.891-1.866H18.08a7.805,7.805,0,0,0,.574,1.051H13.892a1.973,1.973,0,0,0-.028-1.051Zm7.564,2.78a.317.317,0,0,1-.447,0c-.793-.776-2.636-2.775-2.636-4.574a2.867,2.867,0,0,1,5.734,0c0,1.695-1.854,3.76-2.651,4.569Z" transform="translate(-1.406 0)"/>
    <path id="Path_1232" data-name="Path 1232" d="M394.007,356.3a1.88,1.88,0,1,0,1.88,1.88A1.882,1.882,0,0,0,394.007,356.3Zm0,3.071a1.191,1.191,0,1,1,1.191-1.191A1.193,1.193,0,0,1,394.007,359.371Z" transform="translate(-374.2 -339.953)"/>
    <path id="Path_1233" data-name="Path 1233" d="M39.8,38.438a1.88,1.88,0,1,0,1.88,1.88A1.882,1.882,0,0,0,39.8,38.438Zm0,3.071a1.191,1.191,0,1,1,1.191-1.191A1.193,1.193,0,0,1,39.8,41.509Z" transform="translate(-36.249 -36.674)"/>
  </g>
</svg>
