<svg xmlns="http://www.w3.org/2000/svg" width="94.739" height="61.075" viewBox="0 0 94.739 61.075">
  <g id="Group_152957" data-name="Group 152957" transform="translate(0)">
    <g id="Group_152956" data-name="Group 152956" transform="translate(5.409 0.948)">
      <path id="Path_1398" data-name="Path 1398" d="M86.771,100.286a2.156,2.156,0,0,1,2.152,2.152v49.475H38.833a4.3,4.3,0,0,1-4.286-4.286V102.438a2.156,2.156,0,0,1,2.152-2.152H86.771Z" transform="translate(-34.547 -100.286)" fill="#323e66" fill-rule="evenodd"/>
      <path id="Path_1399" data-name="Path 1399" d="M88.922,323.394H38.833a4.294,4.294,0,0,1-4.286-4.286v-7.254H88.922v11.54Z" transform="translate(-34.547 -271.767)" fill="#e37500" fill-rule="evenodd"/>
      <path id="Path_1400" data-name="Path 1400" d="M352.169,221.724H321.525V186.417h18.526a4.511,4.511,0,0,1,3.435,1.51l7.456,8.125a4.5,4.5,0,0,1,1.227,3.152v22.52Z" transform="translate(-267.149 -170.097)" fill="#f9ac00" fill-rule="evenodd"/>
      <path id="Path_1401" data-name="Path 1401" d="M349.09,221.724H321.525V186.417h15.447a4.511,4.511,0,0,1,3.435,1.51l7.456,8.125a4.5,4.5,0,0,1,1.227,3.152v22.52Z" transform="translate(-267.15 -170.097)" fill="#fdc72e" fill-rule="evenodd"/>
      <path id="Path_1402" data-name="Path 1402" d="M368.851,215.485v-9.872H383.8l5.5,6a4.5,4.5,0,0,1,1.227,3.152v.722Z" transform="translate(-305.508 -185.656)" fill="#e9e9ff" fill-rule="evenodd"/>
      <path id="Path_1403" data-name="Path 1403" d="M368.851,215.485v-9.872h11.867l5.5,6a4.5,4.5,0,0,1,1.227,3.152v.722h-18.6Z" transform="translate(-305.508 -185.656)" fill="#f0f0ff" fill-rule="evenodd"/>
      <path id="Path_1404" data-name="Path 1404" d="M119.565,331.809H34.546v4.129h85.333a3.054,3.054,0,0,0,3.049-3.048v-5.558h-3.362Z" transform="translate(-34.546 -284.311)" fill="#7986bf" fill-rule="evenodd"/>
    </g>
    <path id="Path_1405" data-name="Path 1405" d="M34.546,332.788h4.39v3.444h-4.39Z" transform="translate(-29.137 -287.786)" fill="#323e66"/>
    <path id="Path_1406" data-name="Path 1406" d="M460.89,291.132h4.237v4.909H460.89Z" transform="translate(-374.699 -254.023)" fill="#323e66"/>
    <ellipse id="Ellipse_994" data-name="Ellipse 994" cx="7.381" cy="7.381" rx="7.381" ry="7.381" transform="translate(66.544 45.194)" fill="#323e66"/>
    <path id="Path_1407" data-name="Path 1407" d="M380.641,360.87a3.627,3.627,0,1,0-3.627-3.627A3.634,3.634,0,0,0,380.641,360.87Z" transform="translate(-306.716 -304.669)" fill="#fdc72e" fill-rule="evenodd"/>
    <ellipse id="Ellipse_995" data-name="Ellipse 995" cx="7.381" cy="7.381" rx="7.381" ry="7.381" transform="translate(12.807 46.506) rotate(-9.321)" fill="#323e66"/>
    <path id="Path_1408" data-name="Path 1408" d="M102.862,360.87a3.627,3.627,0,1,0-3.627-3.627A3.634,3.634,0,0,0,102.862,360.87Z" transform="translate(-81.569 -304.669)" fill="#fdc72e" fill-rule="evenodd"/>
    <path id="Path_1409" data-name="Path 1409" d="M152.024,235.62h14.444v14.444H152.024Z" transform="translate(-124.356 -209.029)" fill="#e6b17c"/>
    <path id="Path_1410" data-name="Path 1410" d="M179,235.62h4.223v4.7l-2.112-1.06L179,240.319Z" transform="translate(-146.217 -209.029)" fill="#fdc72e" fill-rule="evenodd"/>
    <path id="Path_1411" data-name="Path 1411" d="M152.024,159.387h14.444v14.444H152.024Z" transform="translate(-124.356 -147.241)" fill="#ba8047"/>
    <path id="Path_1412" data-name="Path 1412" d="M179,159.387h4.223v4.7l-2.112-1.06L179,164.086Z" transform="translate(-146.217 -147.241)" fill="#2dd62d" fill-rule="evenodd"/>
    <path id="Path_1413" data-name="Path 1413" d="M228.257,235.62H242.7v14.444H228.257Z" transform="translate(-186.144 -209.029)" fill="#dea368"/>
    <path id="Path_1414" data-name="Path 1414" d="M255.228,235.62h4.223v4.7l-2.112-1.06-2.112,1.06Z" transform="translate(-208.005 -209.029)" fill="#fb545c" fill-rule="evenodd"/>
    <path id="Path_1415" data-name="Path 1415" d="M228.257,135.311H242.7v19.006H228.257Z" transform="translate(-186.144 -127.726)" fill="#fdd7ad"/>
    <path id="Path_1416" data-name="Path 1416" d="M255.228,135.311h4.223v4.7l-2.112-1.06-2.112,1.06Z" transform="translate(-208.005 -127.726)" fill="#5caeff" fill-rule="evenodd"/>
    <path id="Path_1417" data-name="Path 1417" d="M75.791,235.62H90.235v14.444H75.791Z" transform="translate(-62.567 -209.029)" fill="#fdd7ad"/>
    <path id="Path_1418" data-name="Path 1418" d="M102.763,235.62h4.223v4.7l-2.112-1.06-2.112,1.06Z" transform="translate(-84.429 -209.029)" fill="#5caeff" fill-rule="evenodd"/>
    <path id="Path_1419" data-name="Path 1419" d="M321.525,171.514h17.643l-2.887-2.887a1.967,1.967,0,0,0-1.44-.6H321.525Z" transform="translate(-261.741 -154.246)" fill="#e37500" fill-rule="evenodd"/>
    <path id="Path_1420" data-name="Path 1420" d="M75.791,235.62h1.584v14.444H75.791Z" transform="translate(-62.567 -209.029)" fill="#f2c496"/>
    <path id="Path_1421" data-name="Path 1421" d="M152.024,235.62h1.584v14.444h-1.584Z" transform="translate(-124.356 -209.029)" fill="#dea368"/>
    <path id="Path_1422" data-name="Path 1422" d="M228.257,235.62h1.584v14.444h-1.584Z" transform="translate(-186.144 -209.029)" fill="#d19458"/>
    <path id="Path_1423" data-name="Path 1423" d="M228.257,135.311h1.584v19.006h-1.584Z" transform="translate(-186.144 -127.726)" fill="#f2c496"/>
    <path id="Path_1424" data-name="Path 1424" d="M152.024,159.387h1.584v14.444h-1.584Z" transform="translate(-124.356 -147.241)" fill="#ab733a"/>
    <path id="Path_1425" data-name="Path 1425" d="M15.6,112.665H7.824a.947.947,0,1,1,0-1.895H15.6a.947.947,0,1,1,0,1.895Zm4.126,5.073H8.908a.947.947,0,0,1,0-1.895H19.73a.947.947,0,0,1,0,1.895ZM10.6,104.886h6.291a.947.947,0,0,1,0,1.895H10.6a.947.947,0,1,1,0-1.895Zm-3.653-2.433a.947.947,0,1,1,0-1.895h8.117a.947.947,0,1,1,0,1.895Zm20.344,48.083a2.679,2.679,0,1,1,2.679-2.679A2.682,2.682,0,0,1,27.291,150.535Zm0-7.253a4.574,4.574,0,1,0,4.574,4.574A4.579,4.579,0,0,0,27.291,143.282Zm52.632,7.253a2.679,2.679,0,1,1,2.68-2.679A2.682,2.682,0,0,1,79.923,150.535Zm0-7.253a4.574,4.574,0,1,0,4.575,4.574A4.58,4.58,0,0,0,79.923,143.282Zm-7.042-9.718a.946.946,0,0,1,.947-.947H77.9a.947.947,0,1,1,0,1.894H73.828A.944.944,0,0,1,72.88,133.565Zm25.962,11.243a2.1,2.1,0,0,1-2.1,2.1H88.2a8.307,8.307,0,0,0-.577-2.233h8.807a.947.947,0,0,0,.947-.947V140.2h1.468Zm-18.919,9.484a6.434,6.434,0,1,0-6.433-6.435A6.444,6.444,0,0,0,79.923,154.291Zm-52.632,0a6.434,6.434,0,1,0-6.433-6.435A6.443,6.443,0,0,0,27.291,154.291Zm-14.934-9.616H19.6a8.342,8.342,0,0,0-.578,2.233H12.357v-2.233Zm2.495-1.895H12.357v-1.55h2.495Zm49.984-5.516v5.516H33.887a8.313,8.313,0,0,0-13.19,0h-3.95v-2.5a.947.947,0,0,0-.947-.947H12.357v-2.071H64.835ZM20.17,122.82h3.216v3.752a.948.948,0,0,0,1.373.847l1.686-.846,1.686.846a.947.947,0,0,0,1.373-.846V122.82h3.215v12.55H20.17V122.82Zm5.111,0v2.216l.739-.371a.954.954,0,0,1,.851,0l.739.371V122.82Zm9.333-14.444h3.218v3.752a.946.946,0,0,0,1.372.846l1.687-.846,1.686.846a.946.946,0,0,0,1.371-.846v-3.752h3.217v12.549H34.614Zm5.112,0v2.216l.739-.371a.943.943,0,0,1,.849,0l.738.371v-2.216H39.726Zm12.549-4.562v3.752a.946.946,0,0,0,1.372.846l1.686-.846,1.686.846a.949.949,0,0,0,1.374-.846v-3.752h3.216v17.111H49.059V103.814h3.216Zm1.894,0v2.216l.739-.371a.947.947,0,0,1,.851,0l.739.371v-2.216Zm0,19.006H56.5v2.216l-.739-.371a.954.954,0,0,0-.851,0l-.739.371Zm-15.89,4.557a.95.95,0,0,0,.923.041l1.687-.846,1.686.846a.946.946,0,0,0,1.371-.847V122.82h3.217v12.55H34.613V122.82h3.218v3.752a.945.945,0,0,0,.448.806Zm1.446-4.557v2.216l.739-.371a.949.949,0,0,1,.849,0l.738.371V122.82H39.726Zm9.333,12.55H61.609V122.82H58.393v3.752a.949.949,0,0,1-1.374.846l-1.686-.846-1.686.846a.941.941,0,0,1-.425.1.947.947,0,0,1-.947-.948V122.82H49.059v12.55ZM79.1,110.013a1.024,1.024,0,0,1,.771.319l1.27,1.27H66.73v-1.589ZM34.987,144.675H72.229a8.233,8.233,0,0,0-.578,2.233H35.563a8.291,8.291,0,0,0-.576-2.233ZM87.046,114.7a3.575,3.575,0,0,0-2.736-1.2H66.73V142.78h6.6a8.312,8.312,0,0,1,13.189,0h8.961v-4.533h-3.29a.948.948,0,0,1-.947-.946v-4.91a.948.948,0,0,1,.947-.947h3.29v-4.438H74.751a.947.947,0,0,1-.947-.947v-9.872a.947.947,0,0,1,.947-.947H87.542Zm8.424,10.412H75.7v-7.977H89.28l5.222,5.691a3.535,3.535,0,0,1,.968,2.286Zm.01,11.242H93.137v-3.015h2.342Zm4.31,1.949H97.374V125.337a5.451,5.451,0,0,0-1.476-3.793l-7.457-8.124A5.473,5.473,0,0,0,84.31,111.6h-.491l-2.609-2.61a2.928,2.928,0,0,0-2.111-.873H66.73V98.382a3.1,3.1,0,0,0-3.1-3.1H11.143a.947.947,0,1,0,0,1.895H63.632a1.205,1.205,0,0,1,1.2,1.2v36.988H63.5v-32.5a.948.948,0,0,0-.947-.947H48.112a.948.948,0,0,0-.947.947v3.615h-13.5a.948.948,0,0,0-.947.947v13.5h-13.5a.947.947,0,0,0-.946.947v13.5H12.357V120.485a.947.947,0,0,0-1.895,0v27.371a.946.946,0,0,0,.947.947h7.609a8.326,8.326,0,0,0,16.545,0H71.651a8.326,8.326,0,0,0,16.546,0h8.545a4,4,0,0,0,4-4V139.25a.948.948,0,0,0-.947-.947Z" transform="translate(-5.999 -95.282)" fill-rule="evenodd"/>
  </g>
</svg>
