<svg xmlns="http://www.w3.org/2000/svg" width="17.6" height="18.5" viewBox="0 0 17.6 18.5">
  <g id="Group_153139" data-name="Group 153139" transform="translate(-45.25 -687.25)">
    <path id="Path_1392" data-name="Path 1392" d="M15.84,13.336a4.95,4.95,0,1,0-4.58,0A8.933,8.933,0,0,0,5,22H22.1A8.933,8.933,0,0,0,15.84,13.336ZM9.5,8.95A4.05,4.05,0,1,1,13.55,13,4.054,4.054,0,0,1,9.5,8.95Zm4.05,4.95a7.836,7.836,0,0,1,7.6,7.2H5.947A7.836,7.836,0,0,1,13.55,13.9Z" transform="translate(40.5 683.5)" fill="#1a1a1a" stroke="#1a1a1a" stroke-width="0.5"/>
  </g>
</svg>
