<svg id="Group_244" data-name="Group 244" xmlns="http://www.w3.org/2000/svg" width="37.316" height="20.2" viewBox="0 0 37.316 20.2">
  <g id="color" transform="translate(7.06 0.579)">
    <path id="Path_1206" data-name="Path 1206" d="M38.284,23.323l-3.156-5.66a.9.9,0,0,0-.785-.459H29.46V12.532a.484.484,0,0,0-.482-.482H9.472a.484.484,0,0,0-.482.482V27.775a.7.7,0,0,0,.7.7H38.245a.418.418,0,0,0,.42-.42V24.8a3.051,3.051,0,0,0-.381-1.477Z" transform="translate(-8.99 -12.05)" fill="#eda558"/>
    <path id="Path_1207" data-name="Path 1207" d="M45.01,26.276v2.177H38.918A1.418,1.418,0,0,1,37.5,27.034V18.68h3.187a.9.9,0,0,1,.785.459l3.156,5.66a3.051,3.051,0,0,1,.381,1.477Z" transform="translate(-15.335 -13.526)" fill="#399aea"/>
    <path id="Path_1208" data-name="Path 1208" d="M43.074,32.432a2.546,2.546,0,0,1-.474,1.493,2.606,2.606,0,1,1,.474-1.493Z" transform="translate(-15.413 -16.005)" fill="#51454e"/>
    <path id="Path_1209" data-name="Path 1209" d="M29.947,12.532V27.054H14.042a2.862,2.862,0,0,1-2.862-2.862V12.05H29.465A.484.484,0,0,1,29.947,12.532Z" transform="translate(-9.477 -12.05)" fill="#ffc06c"/>
    <path id="Path_1210" data-name="Path 1210" d="M43.484,32.43a2.546,2.546,0,0,1-.474,1.493,2.359,2.359,0,0,1-.707.1,2.613,2.613,0,0,1-2.612-2.612,2.566,2.566,0,0,1,.482-1.508,2.619,2.619,0,0,1,3.312,2.527Z" transform="translate(-15.823 -16.003)" fill="#5b4d57"/>
    <path id="Path_1211" data-name="Path 1211" d="M21.4,32.43a2.612,2.612,0,1,1-3.312-2.519,2.308,2.308,0,0,1,.7-.1A2.615,2.615,0,0,1,21.4,32.43Z" transform="translate(-10.59 -16.003)" fill="#51454e"/>
    <path id="Path_1212" data-name="Path 1212" d="M21.814,32.43a2.6,2.6,0,0,1-.474,1.493,2.359,2.359,0,0,1-.707.1,2.613,2.613,0,0,1-2.612-2.612,2.559,2.559,0,0,1,.482-1.5,2.308,2.308,0,0,1,.7-.1,2.615,2.615,0,0,1,2.612,2.62Z" transform="translate(-11 -16.003)" fill="#5b4d57"/>
  </g>
  <g id="outline">
    <path id="Path_1213" data-name="Path 1213" d="M40.3,35.458a3.2,3.2,0,1,1,3.194-3.2,3.2,3.2,0,0,1-3.194,3.2Zm0-5.227a2.031,2.031,0,1,0,2.028,2.031A2.031,2.031,0,0,0,40.3,30.23Z" transform="translate(-8.186 -15.258)"/>
    <path id="Path_1214" data-name="Path 1214" d="M18.626,35.458a3.2,3.2,0,1,1,3.194-3.2,3.2,3.2,0,0,1-3.194,3.2Zm0-5.227a2.031,2.031,0,1,0,2.028,2.031A2.031,2.031,0,0,0,18.626,30.23Z" transform="translate(-3.363 -15.258)"/>
    <path id="Path_1215" data-name="Path 1215" d="M43.938,30.366H42.344a.583.583,0,0,1,0-1.166h1.43V26.108a2.457,2.457,0,0,0-.311-1.194l-3.156-5.659a.311.311,0,0,0-.271-.159h-4.3V29.2h1.388a.583.583,0,1,1,0,1.166H35.15a.583.583,0,0,1-.583-.583V18.512a.583.583,0,0,1,.583-.583h4.885a1.477,1.477,0,0,1,1.291.757l3.156,5.66a3.624,3.624,0,0,1,.458,1.762v3.257A1,1,0,0,1,43.938,30.366Z" transform="translate(-7.623 -12.779)"/>
    <path id="Path_1216" data-name="Path 1216" d="M14.416,32.308H8.825a.583.583,0,0,1-.583-.583V27.241a.583.583,0,1,1,1.166,0v3.9h5.007a.583.583,0,1,1,0,1.166Z" transform="translate(-1.764 -14.722)"/>
    <path id="Path_1217" data-name="Path 1217" d="M8.825,23.292a.583.583,0,0,1-.583-.583V18.794a.583.583,0,1,1,1.166,0v3.917A.583.583,0,0,1,8.825,23.292Z" transform="translate(-1.764 -12.842)"/>
    <path id="Path_1218" data-name="Path 1218" d="M29.291,28.891H19.638a.583.583,0,1,1,0-1.166h9.07V12.471H9.408v2.4a.583.583,0,0,1-1.166,0V12.364A1.06,1.06,0,0,1,9.3,11.3H28.815a1.06,1.06,0,0,1,1.059,1.059V28.308A.583.583,0,0,1,29.291,28.891Z" transform="translate(-1.764 -11.305)"/>
    <path id="Path_1219" data-name="Path 1219" d="M9.671,27.824h-7.4a.583.583,0,1,1,0-1.166h7.4a.583.583,0,1,1,0,1.166Z" transform="translate(-0.305 -14.722)"/>
    <path id="Path_1220" data-name="Path 1220" d="M16.419,24.413H6.092a.583.583,0,1,1,0-1.166H16.419a.583.583,0,1,1,0,1.166Z" transform="translate(-1.155 -13.963)"/>
    <path id="Path_1221" data-name="Path 1221" d="M4.525,20.453H.492a.583.583,0,1,1,0-1.166H4.525a.583.583,0,1,1,0,1.166Z" transform="translate(0.091 -13.082)"/>
    <path id="Path_1222" data-name="Path 1222" d="M11.958,16.31H4.84a.583.583,0,1,1,0-1.166h7.118a.583.583,0,1,1,0,1.166Z" transform="translate(-0.877 -12.159)"/>
  </g>
</svg>
