<svg xmlns="http://www.w3.org/2000/svg" width="16.719" height="14" viewBox="0 0 16.719 14">
  <g id="Visit_Time" data-name="Visit Time" transform="translate(-1.141 -8.515)">
    <path id="Union_5" data-name="Union 5" d="M2.341,6.735a.434.434,0,0,1-.261-.1L.161,5.082A.442.442,0,0,1,0,4.74V.439a.439.439,0,0,1,.878,0V4.531L2.635,5.955a.438.438,0,0,1,.136.5.443.443,0,0,1-.412.286Z" transform="translate(10.498 10.417)" fill="#6b6b6b"/>
    <path id="Union_11" data-name="Union 11" d="M.439.878A.439.439,0,0,1,.439,0H3.375a.439.439,0,0,1,0,.878Z" transform="translate(4.566 17.842)" fill="#6b6b6b"/>
    <path id="Union_10" data-name="Union 10" d="M3.23,1.987A.439.439,0,0,1,2.8,1.608a6.552,6.552,0,0,1-.058-.73H.439A.439.439,0,0,1,.439,0H5.38a.439.439,0,1,1,0,.878H3.619a5.8,5.8,0,0,0,.051.607.439.439,0,0,1-.386.5l-.053.005Z" transform="translate(1.141 14.85)" fill="#6b6b6b"/>
    <path id="Union_7" data-name="Union 7" d="M1.817,1.789a.438.438,0,0,1-.026-.422L2.025.878H.439A.439.439,0,0,1,.439,0H2.194a.44.44,0,0,1,.432.359A.433.433,0,0,1,2.742.4a.441.441,0,0,1,.208.585l-.366.766a.444.444,0,0,1-.4.25A.439.439,0,0,1,1.817,1.789Z" transform="translate(2.446 11.827)" fill="#6b6b6b"/>
    <path id="Path_1310" data-name="Path 1310" d="M51.553,71.279a.263.263,0,0,1-.263-.263v-.053a.263.263,0,1,1,.527,0v.053A.263.263,0,0,1,51.553,71.279Z" transform="translate(-40.691 -50.399)" fill="#6b6b6b"/>
    <path id="Path_1310_-_Outline" data-name="Path 1310 - Outline" d="M51.579,71.481a.44.44,0,0,1-.439-.439v-.053a.439.439,0,1,1,.878,0v.053A.44.44,0,0,1,51.579,71.481Z" transform="translate(-40.717 -50.425)" fill="#6b6b6b"/>
    <path id="Path_1311" data-name="Path 1311" d="M79.246,44.527h-.053a.263.263,0,1,1,0-.527h.053a.263.263,0,0,1,0,.527Z" transform="translate(-63.121 -28.747)" fill="#6b6b6b"/>
    <path id="Path_1311_-_Outline" data-name="Path 1311 - Outline" d="M79.272,44.728h-.053a.439.439,0,1,1,0-.878h.053a.439.439,0,1,1,0,.878Z" transform="translate(-63.147 -28.772)" fill="#6b6b6b"/>
    <path id="Union_6" data-name="Union 6" d="M6.382,14A7.116,7.116,0,0,1,1.3,11.862l-.012-.014a.449.449,0,0,1,.046-.608.462.462,0,0,1,.611-.017l.013.013a6.194,6.194,0,0,0,4.416,1.857h.029a6.118,6.118,0,0,0,6.1-5.163A6.053,6.053,0,0,0,8.268,1.2,6.229,6.229,0,0,0,6.405.91,6.151,6.151,0,0,0,.867,4.3a.456.456,0,0,1-.409.251.467.467,0,0,1-.2-.047.455.455,0,0,1-.232-.264.446.446,0,0,1,.026-.346A7.006,7.006,0,0,1,2.7,1.033a7.146,7.146,0,0,1,9.734,2.274,6.934,6.934,0,0,1-1.409,9.007A7.156,7.156,0,0,1,6.406,14Z" transform="translate(4.359 8.515)" fill="#6b6b6b"/>
    <path id="Path_1314" data-name="Path 1314" d="M9.053,59.407H8.573a.263.263,0,0,1,0-.527h.479a.263.263,0,0,1,0,.527Z" transform="translate(-5.762 -40.863)" fill="#6b6b6b"/>
    <path id="Path_1314_-_Outline" data-name="Path 1314 - Outline" d="M9.078,59.608H8.6a.439.439,0,1,1,0-.878h.479a.439.439,0,1,1,0,.878Z" transform="translate(-5.788 -40.888)" fill="#6b6b6b"/>
  </g>
</svg>
